<svg id="visual" viewBox="0 0 540 960" width="540" height="960" xmlns="http://www.w3.org/2000/svg" xmlns:xlink="http://www.w3.org/1999/xlink" version="1.1"><g stroke-width="1" stroke-linejoin="bevel"><path d="M236 462L199.5 449L195.5 519Z" fill="#25217a" stroke="#25217a"></path><path d="M111 482L171 535L195.5 519Z" fill="#442cce" stroke="#442cce"></path><path d="M274 556L272 532L222.5 587Z" fill="#1e1c5a" stroke="#1e1c5a"></path><path d="M195.5 519L272 532L236 462Z" fill="#3c2bbd" stroke="#3c2bbd"></path><path d="M199.5 449L111 482L195.5 519Z" fill="#2a248a" stroke="#2a248a"></path><path d="M222.5 587L272 532L195.5 519Z" fill="#1a184a" stroke="#1a184a"></path><path d="M112 583L222.5 587L171 535Z" fill="#25217a" stroke="#25217a"></path><path d="M171 535L222.5 587L195.5 519Z" fill="#1a184a" stroke="#1a184a"></path><path d="M274 556L311.5 499L272 532Z" fill="#1a184a" stroke="#1a184a"></path><path d="M272 532L311.5 499L236 462Z" fill="#442cce" stroke="#442cce"></path><path d="M258 359L199.5 449L236 462Z" fill="#3c2bbd" stroke="#3c2bbd"></path><path d="M258 359L217.5 353L199.5 449Z" fill="#3c2bbd" stroke="#3c2bbd"></path><path d="M101 385L80.5 437L111 482Z" fill="#2f269b" stroke="#2f269b"></path><path d="M111 482L89.5 546L171 535Z" fill="#442cce" stroke="#442cce"></path><path d="M311.5 379L258 359L236 462Z" fill="#1e1c5a" stroke="#1e1c5a"></path><path d="M101 385L111 482L199.5 449Z" fill="#211f69" stroke="#211f69"></path><path d="M111 482L32.5 497L89.5 546Z" fill="#1a184a" stroke="#1a184a"></path><path d="M89.5 546L112 583L171 535Z" fill="#17153b" stroke="#17153b"></path><path d="M333.5 588L351.5 477L311.5 499Z" fill="#17153b" stroke="#17153b"></path><path d="M311.5 499L311.5 379L236 462Z" fill="#17153b" stroke="#17153b"></path><path d="M217.5 353L101 385L199.5 449Z" fill="#2a248a" stroke="#2a248a"></path><path d="M351.5 477L311.5 379L311.5 499Z" fill="#2f269b" stroke="#2f269b"></path><path d="M112 583L195.5 641L222.5 587Z" fill="#17153b" stroke="#17153b"></path><path d="M279 667L333.5 588L274 556Z" fill="#2f269b" stroke="#2f269b"></path><path d="M274 556L333.5 588L311.5 499Z" fill="#3529ac" stroke="#3529ac"></path><path d="M251 300L196.5 324L217.5 353Z" fill="#4c2ddf" stroke="#4c2ddf"></path><path d="M217.5 353L196.5 324L101 385Z" fill="#2f269b" stroke="#2f269b"></path><path d="M251 300L217.5 353L258 359Z" fill="#442cce" stroke="#442cce"></path><path d="M342.5 617L333.5 588L279 667Z" fill="#1e1c5a" stroke="#1e1c5a"></path><path d="M101 385L56.5 417L80.5 437Z" fill="#4c2ddf" stroke="#4c2ddf"></path><path d="M80.5 437L32.5 497L111 482Z" fill="#3c2bbd" stroke="#3c2bbd"></path><path d="M56.5 417L32.5 497L80.5 437Z" fill="#17153b" stroke="#17153b"></path><path d="M89.5 546L37.5 628L112 583Z" fill="#211f69" stroke="#211f69"></path><path d="M196.5 324L110 329L101 385Z" fill="#17153b" stroke="#17153b"></path><path d="M0 341L0 387L56.5 417Z" fill="#2f269b" stroke="#2f269b"></path><path d="M279 667L274 556L222.5 587Z" fill="#25217a" stroke="#25217a"></path><path d="M432 532L436 479L351.5 477Z" fill="#17153b" stroke="#17153b"></path><path d="M354.5 339L251 300L258 359Z" fill="#2f269b" stroke="#2f269b"></path><path d="M196.5 324L169.5 279L110 329Z" fill="#17153b" stroke="#17153b"></path><path d="M195.5 641L279 667L222.5 587Z" fill="#3c2bbd" stroke="#3c2bbd"></path><path d="M112 583L132 672L195.5 641Z" fill="#2a248a" stroke="#2a248a"></path><path d="M195.5 641L279 693L279 667Z" fill="#25217a" stroke="#25217a"></path><path d="M37.5 628L132 672L112 583Z" fill="#442cce" stroke="#442cce"></path><path d="M405 376L354.5 339L311.5 379Z" fill="#17153b" stroke="#17153b"></path><path d="M311.5 379L354.5 339L258 359Z" fill="#211f69" stroke="#211f69"></path><path d="M132 672L145 682L195.5 641Z" fill="#442cce" stroke="#442cce"></path><path d="M0 437L0 510L32.5 497Z" fill="#3c2bbd" stroke="#3c2bbd"></path><path d="M32.5 497L0 510L89.5 546Z" fill="#1a184a" stroke="#1a184a"></path><path d="M251 300L169.5 279L196.5 324Z" fill="#211f69" stroke="#211f69"></path><path d="M0 387L0 437L56.5 417Z" fill="#442cce" stroke="#442cce"></path><path d="M56.5 417L0 437L32.5 497Z" fill="#1e1c5a" stroke="#1e1c5a"></path><path d="M177.5 720L279 693L195.5 641Z" fill="#2a248a" stroke="#2a248a"></path><path d="M339.5 704L381 660L342.5 617Z" fill="#4c2ddf" stroke="#4c2ddf"></path><path d="M0 612L37.5 628L89.5 546Z" fill="#17153b" stroke="#17153b"></path><path d="M159 740L177.5 720L145 682Z" fill="#442cce" stroke="#442cce"></path><path d="M351.5 477L405 376L311.5 379Z" fill="#3529ac" stroke="#3529ac"></path><path d="M436 479L405 376L351.5 477Z" fill="#442cce" stroke="#442cce"></path><path d="M169.5 279L89.5 290L110 329Z" fill="#1a184a" stroke="#1a184a"></path><path d="M0 341L56.5 417L101 385Z" fill="#1a184a" stroke="#1a184a"></path><path d="M432 532L351.5 477L333.5 588Z" fill="#3c2bbd" stroke="#3c2bbd"></path><path d="M0 341L101 385L110 329Z" fill="#25217a" stroke="#25217a"></path><path d="M402 612L333.5 588L342.5 617Z" fill="#2f269b" stroke="#2f269b"></path><path d="M402 612L432 532L333.5 588Z" fill="#17153b" stroke="#17153b"></path><path d="M381 660L402 612L342.5 617Z" fill="#17153b" stroke="#17153b"></path><path d="M84.5 707L145 682L132 672Z" fill="#1e1c5a" stroke="#1e1c5a"></path><path d="M145 682L177.5 720L195.5 641Z" fill="#25217a" stroke="#25217a"></path><path d="M0 510L0 612L89.5 546Z" fill="#1a184a" stroke="#1a184a"></path><path d="M37.5 628L84.5 707L132 672Z" fill="#3c2bbd" stroke="#3c2bbd"></path><path d="M432 532L453.5 476L436 479Z" fill="#4c2ddf" stroke="#4c2ddf"></path><path d="M436 479L468.5 447L405 376Z" fill="#3529ac" stroke="#3529ac"></path><path d="M468.5 447L453.5 476L540 527Z" fill="#1e1c5a" stroke="#1e1c5a"></path><path d="M339.5 704L342.5 617L279 667Z" fill="#1e1c5a" stroke="#1e1c5a"></path><path d="M197.5 207L119 252L169.5 279Z" fill="#3529ac" stroke="#3529ac"></path><path d="M169.5 279L119 252L89.5 290Z" fill="#4c2ddf" stroke="#4c2ddf"></path><path d="M34.5 287L0 341L110 329Z" fill="#4c2ddf" stroke="#4c2ddf"></path><path d="M386 228L336.5 269L434 268Z" fill="#17153b" stroke="#17153b"></path><path d="M354.5 339L336.5 269L251 300Z" fill="#211f69" stroke="#211f69"></path><path d="M251 300L253 226L169.5 279Z" fill="#1a184a" stroke="#1a184a"></path><path d="M451.5 361L423 354L405 376Z" fill="#4c2ddf" stroke="#4c2ddf"></path><path d="M405 376L423 354L354.5 339Z" fill="#4c2ddf" stroke="#4c2ddf"></path><path d="M34.5 287L110 329L89.5 290Z" fill="#17153b" stroke="#17153b"></path><path d="M0 667L84.5 707L37.5 628Z" fill="#211f69" stroke="#211f69"></path><path d="M279 693L339.5 704L279 667Z" fill="#25217a" stroke="#25217a"></path><path d="M252 737L339.5 704L279 693Z" fill="#1a184a" stroke="#1a184a"></path><path d="M180.5 796L252 737L177.5 720Z" fill="#2a248a" stroke="#2a248a"></path><path d="M177.5 720L252 737L279 693Z" fill="#1a184a" stroke="#1a184a"></path><path d="M84.5 707L159 740L145 682Z" fill="#442cce" stroke="#442cce"></path><path d="M119 252L34.5 287L89.5 290Z" fill="#1e1c5a" stroke="#1e1c5a"></path><path d="M336.5 269L253 226L251 300Z" fill="#442cce" stroke="#442cce"></path><path d="M465.5 557L453.5 476L432 532Z" fill="#25217a" stroke="#25217a"></path><path d="M453.5 476L468.5 447L436 479Z" fill="#1a184a" stroke="#1a184a"></path><path d="M507.5 663L465.5 557L402 612Z" fill="#2f269b" stroke="#2f269b"></path><path d="M402 612L465.5 557L432 532Z" fill="#25217a" stroke="#25217a"></path><path d="M423 354L434 268L354.5 339Z" fill="#211f69" stroke="#211f69"></path><path d="M468.5 447L451.5 361L405 376Z" fill="#1e1c5a" stroke="#1e1c5a"></path><path d="M0 612L0 664L37.5 628Z" fill="#2f269b" stroke="#2f269b"></path><path d="M0 664L0 667L37.5 628Z" fill="#3529ac" stroke="#3529ac"></path><path d="M253 226L197.5 207L169.5 279Z" fill="#3529ac" stroke="#3529ac"></path><path d="M72.5 169L0 247L34.5 287Z" fill="#1e1c5a" stroke="#1e1c5a"></path><path d="M335.5 155L243 203L253 226Z" fill="#17153b" stroke="#17153b"></path><path d="M253 226L243 203L197.5 207Z" fill="#25217a" stroke="#25217a"></path><path d="M451.5 361L455.5 326L423 354Z" fill="#4c2ddf" stroke="#4c2ddf"></path><path d="M336.5 269L335.5 155L253 226Z" fill="#25217a" stroke="#25217a"></path><path d="M540 357L455.5 326L451.5 361Z" fill="#17153b" stroke="#17153b"></path><path d="M169.5 801L180.5 796L159 740Z" fill="#2f269b" stroke="#2f269b"></path><path d="M159 740L180.5 796L177.5 720Z" fill="#3c2bbd" stroke="#3c2bbd"></path><path d="M336.5 791L410 740L339.5 704Z" fill="#2f269b" stroke="#2f269b"></path><path d="M169.5 801L159 740L116 833Z" fill="#442cce" stroke="#442cce"></path><path d="M434 268L336.5 269L354.5 339Z" fill="#2a248a" stroke="#2a248a"></path><path d="M455.5 326L434 268L423 354Z" fill="#2f269b" stroke="#2f269b"></path><path d="M172.5 154L113 185L197.5 207Z" fill="#2f269b" stroke="#2f269b"></path><path d="M197.5 207L113 185L119 252Z" fill="#3c2bbd" stroke="#3c2bbd"></path><path d="M72.5 169L34.5 287L119 252Z" fill="#1a184a" stroke="#1a184a"></path><path d="M34.5 287L0 247L0 341Z" fill="#2f269b" stroke="#2f269b"></path><path d="M116 833L159 740L84.5 707Z" fill="#1e1c5a" stroke="#1e1c5a"></path><path d="M339.5 704L410 740L381 660Z" fill="#3c2bbd" stroke="#3c2bbd"></path><path d="M381 660L465.5 702L402 612Z" fill="#1a184a" stroke="#1a184a"></path><path d="M336.5 791L339.5 704L252 737Z" fill="#3529ac" stroke="#3529ac"></path><path d="M336.5 791L252 737L255 819Z" fill="#2f269b" stroke="#2f269b"></path><path d="M0 667L0 742L84.5 707Z" fill="#25217a" stroke="#25217a"></path><path d="M243 203L172.5 154L197.5 207Z" fill="#4c2ddf" stroke="#4c2ddf"></path><path d="M255 99L172.5 154L243 203Z" fill="#4c2ddf" stroke="#4c2ddf"></path><path d="M255 819L252 737L180.5 796Z" fill="#442cce" stroke="#442cce"></path><path d="M540 543L540 527L465.5 557Z" fill="#25217a" stroke="#25217a"></path><path d="M465.5 557L540 527L453.5 476Z" fill="#1e1c5a" stroke="#1e1c5a"></path><path d="M468.5 447L540 412L451.5 361Z" fill="#442cce" stroke="#442cce"></path><path d="M477.5 212L442.5 219L434 268Z" fill="#2a248a" stroke="#2a248a"></path><path d="M465.5 739L465.5 702L410 740Z" fill="#2a248a" stroke="#2a248a"></path><path d="M410 740L465.5 702L381 660Z" fill="#25217a" stroke="#25217a"></path><path d="M540 618L540 543L465.5 557Z" fill="#3529ac" stroke="#3529ac"></path><path d="M263 880L255 819L180.5 796Z" fill="#4c2ddf" stroke="#4c2ddf"></path><path d="M540 527L540 412L468.5 447Z" fill="#211f69" stroke="#211f69"></path><path d="M145 105L72.5 169L113 185Z" fill="#2a248a" stroke="#2a248a"></path><path d="M113 185L72.5 169L119 252Z" fill="#1e1c5a" stroke="#1e1c5a"></path><path d="M0 742L35.5 785L84.5 707Z" fill="#2a248a" stroke="#2a248a"></path><path d="M169.5 801L263 880L180.5 796Z" fill="#1a184a" stroke="#1a184a"></path><path d="M336.5 791L425 757L410 740Z" fill="#2a248a" stroke="#2a248a"></path><path d="M540 703L507.5 663L465.5 702Z" fill="#3529ac" stroke="#3529ac"></path><path d="M465.5 702L507.5 663L402 612Z" fill="#1a184a" stroke="#1a184a"></path><path d="M353.5 157L335.5 155L386 228Z" fill="#4c2ddf" stroke="#4c2ddf"></path><path d="M386 228L335.5 155L336.5 269Z" fill="#3529ac" stroke="#3529ac"></path><path d="M540 242L434 268L455.5 326Z" fill="#1a184a" stroke="#1a184a"></path><path d="M434 268L442.5 219L386 228Z" fill="#1a184a" stroke="#1a184a"></path><path d="M540 412L540 357L451.5 361Z" fill="#3529ac" stroke="#3529ac"></path><path d="M507.5 663L540 618L465.5 557Z" fill="#442cce" stroke="#442cce"></path><path d="M427 124L353.5 157L386 228Z" fill="#211f69" stroke="#211f69"></path><path d="M35.5 785L116 833L84.5 707Z" fill="#2a248a" stroke="#2a248a"></path><path d="M72.5 169L0 189L0 247Z" fill="#17153b" stroke="#17153b"></path><path d="M425 757L465.5 739L410 740Z" fill="#17153b" stroke="#17153b"></path><path d="M507.5 663L540 703L540 618Z" fill="#4c2ddf" stroke="#4c2ddf"></path><path d="M540 357L540 320L455.5 326Z" fill="#4c2ddf" stroke="#4c2ddf"></path><path d="M255 819L312.5 842L336.5 791Z" fill="#1a184a" stroke="#1a184a"></path><path d="M336.5 791L395 832L425 757Z" fill="#3529ac" stroke="#3529ac"></path><path d="M425 757L473.5 835L465.5 739Z" fill="#4c2ddf" stroke="#4c2ddf"></path><path d="M263 880L312.5 842L255 819Z" fill="#4c2ddf" stroke="#4c2ddf"></path><path d="M540 242L477.5 212L434 268Z" fill="#4c2ddf" stroke="#4c2ddf"></path><path d="M442.5 219L427 124L386 228Z" fill="#1e1c5a" stroke="#1e1c5a"></path><path d="M172.5 154L145 105L113 185Z" fill="#211f69" stroke="#211f69"></path><path d="M72.5 169L0 145L0 189Z" fill="#3529ac" stroke="#3529ac"></path><path d="M199.5 89L145 105L172.5 154Z" fill="#3c2bbd" stroke="#3c2bbd"></path><path d="M255 99L243 203L335.5 155Z" fill="#1e1c5a" stroke="#1e1c5a"></path><path d="M362.5 72L335.5 155L353.5 157Z" fill="#2f269b" stroke="#2f269b"></path><path d="M253 63L255 99L362.5 72Z" fill="#3529ac" stroke="#3529ac"></path><path d="M351.5 865L395 832L336.5 791Z" fill="#25217a" stroke="#25217a"></path><path d="M255 99L199.5 89L172.5 154Z" fill="#211f69" stroke="#211f69"></path><path d="M0 742L0 824L35.5 785Z" fill="#2f269b" stroke="#2f269b"></path><path d="M35.5 785L42.5 848L116 833Z" fill="#2f269b" stroke="#2f269b"></path><path d="M59.5 110L0 145L72.5 169Z" fill="#3c2bbd" stroke="#3c2bbd"></path><path d="M59.5 110L72.5 169L145 105Z" fill="#211f69" stroke="#211f69"></path><path d="M540 799L540 703L465.5 739Z" fill="#3529ac" stroke="#3529ac"></path><path d="M465.5 739L540 703L465.5 702Z" fill="#3529ac" stroke="#3529ac"></path><path d="M0 824L42.5 848L35.5 785Z" fill="#442cce" stroke="#442cce"></path><path d="M210.5 929L263 880L169.5 801Z" fill="#2a248a" stroke="#2a248a"></path><path d="M210.5 929L169.5 801L116 833Z" fill="#3c2bbd" stroke="#3c2bbd"></path><path d="M312.5 842L351.5 865L336.5 791Z" fill="#2f269b" stroke="#2f269b"></path><path d="M53.5 67L59.5 110L109 45Z" fill="#1a184a" stroke="#1a184a"></path><path d="M263 880L351.5 865L312.5 842Z" fill="#4c2ddf" stroke="#4c2ddf"></path><path d="M540 320L540 242L455.5 326Z" fill="#3529ac" stroke="#3529ac"></path><path d="M496.5 149L427 124L442.5 219Z" fill="#1e1c5a" stroke="#1e1c5a"></path><path d="M350.5 960L375 871L351.5 865Z" fill="#3529ac" stroke="#3529ac"></path><path d="M351.5 865L375 871L395 832Z" fill="#4c2ddf" stroke="#4c2ddf"></path><path d="M395 832L473.5 835L425 757Z" fill="#17153b" stroke="#17153b"></path><path d="M496.5 149L442.5 219L477.5 212Z" fill="#442cce" stroke="#442cce"></path><path d="M255 99L253 63L199.5 89Z" fill="#25217a" stroke="#25217a"></path><path d="M362.5 72L255 99L335.5 155Z" fill="#3c2bbd" stroke="#3c2bbd"></path><path d="M109 45L59.5 110L145 105Z" fill="#3c2bbd" stroke="#3c2bbd"></path><path d="M375 871L473.5 835L395 832Z" fill="#3529ac" stroke="#3529ac"></path><path d="M427 124L362.5 72L353.5 157Z" fill="#211f69" stroke="#211f69"></path><path d="M540 177L496.5 149L477.5 212Z" fill="#2a248a" stroke="#2a248a"></path><path d="M427 124L417 60L362.5 72Z" fill="#442cce" stroke="#442cce"></path><path d="M263 880L292 960L351.5 865Z" fill="#1a184a" stroke="#1a184a"></path><path d="M103 924L210.5 929L116 833Z" fill="#4c2ddf" stroke="#4c2ddf"></path><path d="M109 45L145 105L199.5 89Z" fill="#17153b" stroke="#17153b"></path><path d="M59.5 110L53.5 67L0 145Z" fill="#2a248a" stroke="#2a248a"></path><path d="M172.5 0L109 45L199.5 89Z" fill="#4c2ddf" stroke="#4c2ddf"></path><path d="M233 0L199.5 89L253 63Z" fill="#25217a" stroke="#25217a"></path><path d="M61.5 926L103 924L42.5 848Z" fill="#4c2ddf" stroke="#4c2ddf"></path><path d="M42.5 848L103 924L116 833Z" fill="#17153b" stroke="#17153b"></path><path d="M540 242L540 177L477.5 212Z" fill="#4c2ddf" stroke="#4c2ddf"></path><path d="M473.5 835L540 799L465.5 739Z" fill="#3529ac" stroke="#3529ac"></path><path d="M0 824L0 896L42.5 848Z" fill="#442cce" stroke="#442cce"></path><path d="M0 896L61.5 926L42.5 848Z" fill="#2a248a" stroke="#2a248a"></path><path d="M103 924L173.5 960L210.5 929Z" fill="#4c2ddf" stroke="#4c2ddf"></path><path d="M540 900L540 815L473.5 835Z" fill="#1a184a" stroke="#1a184a"></path><path d="M473.5 835L540 815L540 799Z" fill="#442cce" stroke="#442cce"></path><path d="M495.5 922L473.5 835L375 871Z" fill="#4c2ddf" stroke="#4c2ddf"></path><path d="M540 100L471.5 97L496.5 149Z" fill="#2f269b" stroke="#2f269b"></path><path d="M496.5 149L471.5 97L427 124Z" fill="#1e1c5a" stroke="#1e1c5a"></path><path d="M471.5 97L417 60L427 124Z" fill="#2f269b" stroke="#2f269b"></path><path d="M367.5 0L233 0L253 63Z" fill="#1e1c5a" stroke="#1e1c5a"></path><path d="M132 960L173.5 960L103 924Z" fill="#1a184a" stroke="#1a184a"></path><path d="M210.5 929L292 960L263 880Z" fill="#3529ac" stroke="#3529ac"></path><path d="M40.5 960L132 960L103 924Z" fill="#17153b" stroke="#17153b"></path><path d="M173.5 960L292 960L210.5 929Z" fill="#1e1c5a" stroke="#1e1c5a"></path><path d="M367.5 0L253 63L362.5 72Z" fill="#25217a" stroke="#25217a"></path><path d="M233 0L172.5 0L199.5 89Z" fill="#1e1c5a" stroke="#1e1c5a"></path><path d="M35.5 0L0 31L53.5 67Z" fill="#442cce" stroke="#442cce"></path><path d="M172.5 0L127 0L109 45Z" fill="#2a248a" stroke="#2a248a"></path><path d="M292 960L350.5 960L351.5 865Z" fill="#3529ac" stroke="#3529ac"></path><path d="M35.5 0L53.5 67L109 45Z" fill="#3529ac" stroke="#3529ac"></path><path d="M53.5 67L0 31L0 145Z" fill="#17153b" stroke="#17153b"></path><path d="M0 896L40.5 960L61.5 926Z" fill="#211f69" stroke="#211f69"></path><path d="M61.5 926L40.5 960L103 924Z" fill="#3c2bbd" stroke="#3c2bbd"></path><path d="M540 177L540 100L496.5 149Z" fill="#25217a" stroke="#25217a"></path><path d="M471.5 97L441.5 0L417 60Z" fill="#1e1c5a" stroke="#1e1c5a"></path><path d="M386 0L367.5 0L362.5 72Z" fill="#3c2bbd" stroke="#3c2bbd"></path><path d="M386 0L362.5 72L417 60Z" fill="#2f269b" stroke="#2f269b"></path><path d="M127 0L35.5 0L109 45Z" fill="#25217a" stroke="#25217a"></path><path d="M441.5 0L386 0L417 60Z" fill="#17153b" stroke="#17153b"></path><path d="M0 896L0 960L40.5 960Z" fill="#25217a" stroke="#25217a"></path><path d="M438 960L495.5 922L375 871Z" fill="#2f269b" stroke="#2f269b"></path><path d="M35.5 0L0 0L0 31Z" fill="#1e1c5a" stroke="#1e1c5a"></path><path d="M350.5 960L438 960L375 871Z" fill="#25217a" stroke="#25217a"></path><path d="M540 100L540 71L471.5 97Z" fill="#211f69" stroke="#211f69"></path><path d="M540 960L540 900L495.5 922Z" fill="#1e1c5a" stroke="#1e1c5a"></path><path d="M495.5 922L540 900L473.5 835Z" fill="#2a248a" stroke="#2a248a"></path><path d="M540 71L441.5 0L471.5 97Z" fill="#442cce" stroke="#442cce"></path><path d="M438 960L506.5 960L495.5 922Z" fill="#4c2ddf" stroke="#4c2ddf"></path><path d="M506.5 960L540 960L495.5 922Z" fill="#2a248a" stroke="#2a248a"></path><path d="M540 71L540 0L441.5 0Z" fill="#2a248a" stroke="#2a248a"></path></g></svg>