<svg id="visual" viewBox="0 0 540 960" width="540" height="960" xmlns="http://www.w3.org/2000/svg" xmlns:xlink="http://www.w3.org/1999/xlink" version="1.1"><rect x="0" y="0" width="540" height="960" fill="#000B58"></rect><defs><linearGradient id="grad1_0" x1="0%" y1="100%" x2="100%" y2="0%"><stop offset="30%" stop-color="#072787" stop-opacity="1"></stop><stop offset="70%" stop-color="#072787" stop-opacity="1"></stop></linearGradient></defs><defs><linearGradient id="grad1_1" x1="0%" y1="100%" x2="100%" y2="0%"><stop offset="30%" stop-color="#072787" stop-opacity="1"></stop><stop offset="70%" stop-color="#072380" stop-opacity="1"></stop></linearGradient></defs><defs><linearGradient id="grad1_2" x1="0%" y1="100%" x2="100%" y2="0%"><stop offset="30%" stop-color="#061f79" stop-opacity="1"></stop><stop offset="70%" stop-color="#072380" stop-opacity="1"></stop></linearGradient></defs><defs><linearGradient id="grad1_3" x1="0%" y1="100%" x2="100%" y2="0%"><stop offset="30%" stop-color="#061f79" stop-opacity="1"></stop><stop offset="70%" stop-color="#051b72" stop-opacity="1"></stop></linearGradient></defs><defs><linearGradient id="grad1_4" x1="0%" y1="100%" x2="100%" y2="0%"><stop offset="30%" stop-color="#04176c" stop-opacity="1"></stop><stop offset="70%" stop-color="#051b72" stop-opacity="1"></stop></linearGradient></defs><defs><linearGradient id="grad1_5" x1="0%" y1="100%" x2="100%" y2="0%"><stop offset="30%" stop-color="#04176c" stop-opacity="1"></stop><stop offset="70%" stop-color="#031365" stop-opacity="1"></stop></linearGradient></defs><defs><linearGradient id="grad1_6" x1="0%" y1="100%" x2="100%" y2="0%"><stop offset="30%" stop-color="#010f5e" stop-opacity="1"></stop><stop offset="70%" stop-color="#031365" stop-opacity="1"></stop></linearGradient></defs><defs><linearGradient id="grad1_7" x1="0%" y1="100%" x2="100%" y2="0%"><stop offset="30%" stop-color="#010f5e" stop-opacity="1"></stop><stop offset="70%" stop-color="#000b58" stop-opacity="1"></stop></linearGradient></defs><defs><linearGradient id="grad2_0" x1="0%" y1="100%" x2="100%" y2="0%"><stop offset="30%" stop-color="#072787" stop-opacity="1"></stop><stop offset="70%" stop-color="#072787" stop-opacity="1"></stop></linearGradient></defs><defs><linearGradient id="grad2_1" x1="0%" y1="100%" x2="100%" y2="0%"><stop offset="30%" stop-color="#072380" stop-opacity="1"></stop><stop offset="70%" stop-color="#072787" stop-opacity="1"></stop></linearGradient></defs><defs><linearGradient id="grad2_2" x1="0%" y1="100%" x2="100%" y2="0%"><stop offset="30%" stop-color="#072380" stop-opacity="1"></stop><stop offset="70%" stop-color="#061f79" stop-opacity="1"></stop></linearGradient></defs><defs><linearGradient id="grad2_3" x1="0%" y1="100%" x2="100%" y2="0%"><stop offset="30%" stop-color="#051b72" stop-opacity="1"></stop><stop offset="70%" stop-color="#061f79" stop-opacity="1"></stop></linearGradient></defs><defs><linearGradient id="grad2_4" x1="0%" y1="100%" x2="100%" y2="0%"><stop offset="30%" stop-color="#051b72" stop-opacity="1"></stop><stop offset="70%" stop-color="#04176c" stop-opacity="1"></stop></linearGradient></defs><defs><linearGradient id="grad2_5" x1="0%" y1="100%" x2="100%" y2="0%"><stop offset="30%" stop-color="#031365" stop-opacity="1"></stop><stop offset="70%" stop-color="#04176c" stop-opacity="1"></stop></linearGradient></defs><defs><linearGradient id="grad2_6" x1="0%" y1="100%" x2="100%" y2="0%"><stop offset="30%" stop-color="#031365" stop-opacity="1"></stop><stop offset="70%" stop-color="#010f5e" stop-opacity="1"></stop></linearGradient></defs><defs><linearGradient id="grad2_7" x1="0%" y1="100%" x2="100%" y2="0%"><stop offset="30%" stop-color="#000b58" stop-opacity="1"></stop><stop offset="70%" stop-color="#010f5e" stop-opacity="1"></stop></linearGradient></defs><g transform="translate(540, 960)"><path d="M-540 0C-542 -61.5 -544 -123 -513.6 -166.9C-483.1 -210.8 -420.1 -237 -377 -273.9C-333.9 -310.8 -310.6 -358.3 -271 -373C-231.3 -387.6 -175.2 -369.5 -127.3 -391.8C-79.4 -414.2 -39.7 -477.1 0 -540L0 0Z" fill="#010d5b"></path><path d="M-472.5 0C-474.3 -53.8 -476 -107.6 -449.4 -146C-422.7 -184.4 -367.6 -207.4 -329.9 -239.7C-292.2 -271.9 -271.8 -313.5 -237.1 -326.3C-202.4 -339.2 -153.3 -323.3 -111.4 -342.9C-69.5 -362.4 -34.7 -417.5 0 -472.5L0 0Z" fill="#021162"></path><path d="M-405 0C-406.5 -46.1 -408 -92.2 -385.2 -125.2C-362.3 -158.1 -315.1 -177.8 -282.8 -205.4C-250.4 -233.1 -233 -268.7 -203.2 -279.7C-173.5 -290.7 -131.4 -277.1 -95.5 -293.9C-59.6 -310.7 -29.8 -357.8 0 -405L0 0Z" fill="#031568"></path><path d="M-337.5 0C-338.8 -38.4 -340 -76.9 -321 -104.3C-301.9 -131.7 -262.6 -148.1 -235.6 -171.2C-208.7 -194.2 -194.1 -223.9 -169.4 -233.1C-144.6 -242.3 -109.5 -230.9 -79.6 -244.9C-49.6 -258.9 -24.8 -298.2 0 -337.5L0 0Z" fill="#05196f"></path><path d="M-270 0C-271 -30.7 -272 -61.5 -256.8 -83.4C-241.5 -105.4 -210.1 -118.5 -188.5 -137C-166.9 -155.4 -155.3 -179.1 -135.5 -186.5C-115.7 -193.8 -87.6 -184.7 -63.7 -195.9C-39.7 -207.1 -19.9 -238.6 0 -270L0 0Z" fill="#061d76"></path><path d="M-202.5 0C-203.3 -23.1 -204 -46.1 -192.6 -62.6C-181.2 -79 -157.5 -88.9 -141.4 -102.7C-125.2 -116.5 -116.5 -134.4 -101.6 -139.9C-86.7 -145.4 -65.7 -138.5 -47.7 -146.9C-29.8 -155.3 -14.9 -178.9 0 -202.5L0 0Z" fill="#06217d"></path><path d="M-135 0C-135.5 -15.4 -136 -30.7 -128.4 -41.7C-120.8 -52.7 -105 -59.3 -94.3 -68.5C-83.5 -77.7 -77.7 -89.6 -67.7 -93.2C-57.8 -96.9 -43.8 -92.4 -31.8 -98C-19.9 -103.6 -9.9 -119.3 0 -135L0 0Z" fill="#072584"></path><path d="M-67.5 0C-67.8 -7.7 -68 -15.4 -64.2 -20.9C-60.4 -26.3 -52.5 -29.6 -47.1 -34.2C-41.7 -38.8 -38.8 -44.8 -33.9 -46.6C-28.9 -48.5 -21.9 -46.2 -15.9 -49C-9.9 -51.8 -5 -59.6 0 -67.5L0 0Z" fill="#072787"></path></g><g transform="translate(0, 0)"><path d="M540 0C549.8 68 559.6 136 513.6 166.9C467.5 197.8 365.5 191.6 331.7 241C297.9 290.4 332.2 395.5 305.1 419.9C277.9 444.3 189.3 388.1 128.2 394.7C67.2 401.3 33.6 470.6 0 540L0 0Z" fill="#010d5b"></path><path d="M472.5 0C481.1 59.5 489.7 119 449.4 146C409.1 173 319.8 167.6 290.2 210.9C260.6 254.1 290.7 346 266.9 367.4C243.2 388.8 165.7 339.6 112.2 345.4C58.8 351.1 29.4 411.8 0 472.5L0 0Z" fill="#021162"></path><path d="M405 0C412.4 51 419.7 102 385.2 125.2C350.6 148.3 274.1 143.7 248.8 180.7C223.4 217.8 249.1 296.6 228.8 314.9C208.4 333.2 142 291.1 96.2 296C50.4 301 25.2 353 0 405L0 0Z" fill="#031568"></path><path d="M337.5 0C343.6 42.5 349.8 85 321 104.3C292.2 123.6 228.5 119.7 207.3 150.6C186.2 181.5 207.6 247.2 190.7 262.4C173.7 277.7 118.3 242.6 80.2 246.7C42 250.8 21 294.1 0 337.5L0 0Z" fill="#05196f"></path><path d="M270 0C274.9 34 279.8 68 256.8 83.4C233.7 98.9 182.8 95.8 165.8 120.5C148.9 145.2 166.1 197.7 152.5 209.9C139 222.2 94.7 194.1 64.1 197.3C33.6 200.6 16.8 235.3 0 270L0 0Z" fill="#061d76"></path><path d="M202.5 0C206.2 25.5 209.9 51 192.6 62.6C175.3 74.2 137.1 71.8 124.4 90.4C111.7 108.9 124.6 148.3 114.4 157.5C104.2 166.6 71 145.5 48.1 148C25.2 150.5 12.6 176.5 0 202.5L0 0Z" fill="#06217d"></path><path d="M135 0C137.5 17 139.9 34 128.4 41.7C116.9 49.4 91.4 47.9 82.9 60.2C74.5 72.6 83 98.9 76.3 105C69.5 111.1 47.3 97 32.1 98.7C16.8 100.3 8.4 117.7 0 135L0 0Z" fill="#072584"></path><path d="M67.5 0C68.7 8.5 70 17 64.2 20.9C58.4 24.7 45.7 23.9 41.5 30.1C37.2 36.3 41.5 49.4 38.1 52.5C34.7 55.5 23.7 48.5 16 49.3C8.4 50.2 4.2 58.8 0 67.5L0 0Z" fill="#072787"></path></g></svg>