<svg id="visual" viewBox="0 0 540 960" width="540" height="960" xmlns="http://www.w3.org/2000/svg" xmlns:xlink="http://www.w3.org/1999/xlink" version="1.1"><rect x="0" y="0" width="540" height="960" fill="#000B58"></rect><defs><linearGradient id="grad1_0" x1="0%" y1="100%" x2="100%" y2="0%"><stop offset="30%" stop-color="#2954d6" stop-opacity="1"></stop><stop offset="70%" stop-color="#2954d6" stop-opacity="1"></stop></linearGradient></defs><defs><linearGradient id="grad1_1" x1="0%" y1="100%" x2="100%" y2="0%"><stop offset="30%" stop-color="#2954d6" stop-opacity="1"></stop><stop offset="70%" stop-color="#2649c3" stop-opacity="1"></stop></linearGradient></defs><defs><linearGradient id="grad1_2" x1="0%" y1="100%" x2="100%" y2="0%"><stop offset="30%" stop-color="#223eb0" stop-opacity="1"></stop><stop offset="70%" stop-color="#2649c3" stop-opacity="1"></stop></linearGradient></defs><defs><linearGradient id="grad1_3" x1="0%" y1="100%" x2="100%" y2="0%"><stop offset="30%" stop-color="#223eb0" stop-opacity="1"></stop><stop offset="70%" stop-color="#1d339d" stop-opacity="1"></stop></linearGradient></defs><defs><linearGradient id="grad1_4" x1="0%" y1="100%" x2="100%" y2="0%"><stop offset="30%" stop-color="#17288b" stop-opacity="1"></stop><stop offset="70%" stop-color="#1d339d" stop-opacity="1"></stop></linearGradient></defs><defs><linearGradient id="grad1_5" x1="0%" y1="100%" x2="100%" y2="0%"><stop offset="30%" stop-color="#17288b" stop-opacity="1"></stop><stop offset="70%" stop-color="#101e7a" stop-opacity="1"></stop></linearGradient></defs><defs><linearGradient id="grad1_6" x1="0%" y1="100%" x2="100%" y2="0%"><stop offset="30%" stop-color="#081569" stop-opacity="1"></stop><stop offset="70%" stop-color="#101e7a" stop-opacity="1"></stop></linearGradient></defs><defs><linearGradient id="grad1_7" x1="0%" y1="100%" x2="100%" y2="0%"><stop offset="30%" stop-color="#081569" stop-opacity="1"></stop><stop offset="70%" stop-color="#000b58" stop-opacity="1"></stop></linearGradient></defs><defs><linearGradient id="grad2_0" x1="0%" y1="100%" x2="100%" y2="0%"><stop offset="30%" stop-color="#2954d6" stop-opacity="1"></stop><stop offset="70%" stop-color="#2954d6" stop-opacity="1"></stop></linearGradient></defs><defs><linearGradient id="grad2_1" x1="0%" y1="100%" x2="100%" y2="0%"><stop offset="30%" stop-color="#2649c3" stop-opacity="1"></stop><stop offset="70%" stop-color="#2954d6" stop-opacity="1"></stop></linearGradient></defs><defs><linearGradient id="grad2_2" x1="0%" y1="100%" x2="100%" y2="0%"><stop offset="30%" stop-color="#2649c3" stop-opacity="1"></stop><stop offset="70%" stop-color="#223eb0" stop-opacity="1"></stop></linearGradient></defs><defs><linearGradient id="grad2_3" x1="0%" y1="100%" x2="100%" y2="0%"><stop offset="30%" stop-color="#1d339d" stop-opacity="1"></stop><stop offset="70%" stop-color="#223eb0" stop-opacity="1"></stop></linearGradient></defs><defs><linearGradient id="grad2_4" x1="0%" y1="100%" x2="100%" y2="0%"><stop offset="30%" stop-color="#1d339d" stop-opacity="1"></stop><stop offset="70%" stop-color="#17288b" stop-opacity="1"></stop></linearGradient></defs><defs><linearGradient id="grad2_5" x1="0%" y1="100%" x2="100%" y2="0%"><stop offset="30%" stop-color="#101e7a" stop-opacity="1"></stop><stop offset="70%" stop-color="#17288b" stop-opacity="1"></stop></linearGradient></defs><defs><linearGradient id="grad2_6" x1="0%" y1="100%" x2="100%" y2="0%"><stop offset="30%" stop-color="#101e7a" stop-opacity="1"></stop><stop offset="70%" stop-color="#081569" stop-opacity="1"></stop></linearGradient></defs><defs><linearGradient id="grad2_7" x1="0%" y1="100%" x2="100%" y2="0%"><stop offset="30%" stop-color="#000b58" stop-opacity="1"></stop><stop offset="70%" stop-color="#081569" stop-opacity="1"></stop></linearGradient></defs><g transform="translate(540, 960)"><path d="M-540 0C-545.4 -62.8 -550.9 -125.6 -513.6 -166.9C-476.3 -208.2 -396.2 -228 -345.5 -251C-294.7 -274 -273.3 -300.1 -249.2 -343C-225.1 -385.9 -198.3 -445.6 -156.4 -481.2C-114.4 -516.9 -57.2 -528.4 0 -540L0 0Z" fill="#041060"></path><path d="M-472.5 0C-477.3 -54.9 -482 -109.9 -449.4 -146C-416.7 -182.2 -346.7 -199.5 -302.3 -219.6C-257.9 -239.7 -239.1 -262.6 -218.1 -300.1C-197 -337.7 -173.6 -389.9 -136.8 -421.1C-100.1 -452.3 -50 -462.4 0 -472.5L0 0Z" fill="#0c1971"></path><path d="M-405 0C-409.1 -47.1 -413.2 -94.2 -385.2 -125.2C-357.2 -156.1 -297.1 -171 -259.1 -188.2C-221 -205.5 -205 -225.1 -186.9 -257.3C-168.8 -289.5 -148.8 -334.2 -117.3 -360.9C-85.8 -387.6 -42.9 -396.3 0 -405L0 0Z" fill="#142382"></path><path d="M-337.5 0C-340.9 -39.2 -344.3 -78.5 -321 -104.3C-297.7 -130.1 -247.6 -142.5 -215.9 -156.9C-184.2 -171.2 -170.8 -187.6 -155.8 -214.4C-140.7 -241.2 -124 -278.5 -97.7 -300.8C-71.5 -323 -35.7 -330.3 0 -337.5L0 0Z" fill="#1a2e94"></path><path d="M-270 0C-272.7 -31.4 -275.4 -62.8 -256.8 -83.4C-238.1 -104.1 -198.1 -114 -172.7 -125.5C-147.4 -137 -136.7 -150.1 -124.6 -171.5C-112.6 -193 -99.2 -222.8 -78.2 -240.6C-57.2 -258.4 -28.6 -264.2 0 -270L0 0Z" fill="#2038a6"></path><path d="M-202.5 0C-204.5 -23.5 -206.6 -47.1 -192.6 -62.6C-178.6 -78.1 -148.6 -85.5 -129.5 -94.1C-110.5 -102.7 -102.5 -112.5 -93.5 -128.6C-84.4 -144.7 -74.4 -167.1 -58.6 -180.5C-42.9 -193.8 -21.4 -198.2 0 -202.5L0 0Z" fill="#2443b9"></path><path d="M-135 0C-136.4 -15.7 -137.7 -31.4 -128.4 -41.7C-119.1 -52 -99 -57 -86.4 -62.7C-73.7 -68.5 -68.3 -75 -62.3 -85.8C-56.3 -96.5 -49.6 -111.4 -39.1 -120.3C-28.6 -129.2 -14.3 -132.1 0 -135L0 0Z" fill="#284ecc"></path><path d="M-67.5 0C-68.2 -7.8 -68.9 -15.7 -64.2 -20.9C-59.5 -26 -49.5 -28.5 -43.2 -31.4C-36.8 -34.2 -34.2 -37.5 -31.2 -42.9C-28.1 -48.2 -24.8 -55.7 -19.5 -60.2C-14.3 -64.6 -7.1 -66.1 0 -67.5L0 0Z" fill="#2954d6"></path></g><g transform="translate(0, 0)"><path d="M540 0C514 49.6 488 99.1 476.5 154.8C465 210.5 468 272.3 436.9 317.4C405.8 362.5 340.6 390.9 279.8 385.1C219 379.3 162.7 339.4 116.8 359.5C70.9 379.6 35.5 459.8 0 540L0 0Z" fill="#041060"></path><path d="M472.5 0C449.7 43.4 427 86.7 416.9 135.5C406.9 184.2 409.5 238.3 382.3 277.7C355 317.2 298 342 244.8 337C191.6 331.9 142.4 297 102.2 314.6C62.1 332.2 31 402.3 0 472.5L0 0Z" fill="#0c1971"></path><path d="M405 0C385.5 37.2 366 74.3 357.4 116.1C348.7 157.9 351 204.2 327.7 238.1C304.3 271.9 255.4 293.2 209.8 288.8C164.3 284.5 122 254.5 87.6 269.6C53.2 284.7 26.6 344.9 0 405L0 0Z" fill="#142382"></path><path d="M337.5 0C321.2 31 305 62 297.8 96.8C290.6 131.6 292.5 170.2 273 198.4C253.6 226.6 212.8 244.3 174.9 240.7C136.9 237.1 101.7 212.1 73 224.7C44.3 237.3 22.2 287.4 0 337.5L0 0Z" fill="#1a2e94"></path><path d="M270 0C257 24.8 244 49.6 238.2 77.4C232.5 105.3 234 136.2 218.4 158.7C202.9 181.2 170.3 195.4 139.9 192.5C109.5 189.7 81.3 169.7 58.4 179.7C35.5 189.8 17.7 229.9 0 270L0 0Z" fill="#2038a6"></path><path d="M202.5 0C192.7 18.6 183 37.2 178.7 58.1C174.4 78.9 175.5 102.1 163.8 119C152.2 135.9 127.7 146.6 104.9 144.4C82.1 142.2 61 127.3 43.8 134.8C26.6 142.4 13.3 172.4 0 202.5L0 0Z" fill="#2443b9"></path><path d="M135 0C128.5 12.4 122 24.8 119.1 38.7C116.2 52.6 117 68.1 109.2 79.4C101.4 90.6 85.1 97.7 69.9 96.3C54.8 94.8 40.7 84.8 29.2 89.9C17.7 94.9 8.9 115 0 135L0 0Z" fill="#284ecc"></path><path d="M67.5 0C64.2 6.2 61 12.4 59.6 19.4C58.1 26.3 58.5 34 54.6 39.7C50.7 45.3 42.6 48.9 35 48.1C27.4 47.4 20.3 42.4 14.6 44.9C8.9 47.5 4.4 57.5 0 67.5L0 0Z" fill="#2954d6"></path></g></svg>