<svg id="visual" viewBox="0 0 540 960" width="540" height="960" xmlns="http://www.w3.org/2000/svg" xmlns:xlink="http://www.w3.org/1999/xlink" version="1.1"><rect x="0" y="0" width="540" height="960" fill="#000B58"></rect><defs><linearGradient id="grad1_0" x1="0%" y1="0%" x2="100%" y2="100%"><stop offset="30%" stop-color="#006a67" stop-opacity="1"></stop><stop offset="70%" stop-color="#006a67" stop-opacity="1"></stop></linearGradient></defs><defs><linearGradient id="grad1_1" x1="0%" y1="0%" x2="100%" y2="100%"><stop offset="30%" stop-color="#006a67" stop-opacity="1"></stop><stop offset="70%" stop-color="#00586d" stop-opacity="1"></stop></linearGradient></defs><defs><linearGradient id="grad1_2" x1="0%" y1="0%" x2="100%" y2="100%"><stop offset="30%" stop-color="#004372" stop-opacity="1"></stop><stop offset="70%" stop-color="#00586d" stop-opacity="1"></stop></linearGradient></defs><defs><linearGradient id="grad1_3" x1="0%" y1="0%" x2="100%" y2="100%"><stop offset="30%" stop-color="#004372" stop-opacity="1"></stop><stop offset="70%" stop-color="#002c6e" stop-opacity="1"></stop></linearGradient></defs><defs><linearGradient id="grad1_4" x1="0%" y1="0%" x2="100%" y2="100%"><stop offset="30%" stop-color="#000b58" stop-opacity="1"></stop><stop offset="70%" stop-color="#002c6e" stop-opacity="1"></stop></linearGradient></defs><defs><linearGradient id="grad2_0" x1="0%" y1="0%" x2="100%" y2="100%"><stop offset="30%" stop-color="#006a67" stop-opacity="1"></stop><stop offset="70%" stop-color="#006a67" stop-opacity="1"></stop></linearGradient></defs><defs><linearGradient id="grad2_1" x1="0%" y1="0%" x2="100%" y2="100%"><stop offset="30%" stop-color="#00586d" stop-opacity="1"></stop><stop offset="70%" stop-color="#006a67" stop-opacity="1"></stop></linearGradient></defs><defs><linearGradient id="grad2_2" x1="0%" y1="0%" x2="100%" y2="100%"><stop offset="30%" stop-color="#00586d" stop-opacity="1"></stop><stop offset="70%" stop-color="#004372" stop-opacity="1"></stop></linearGradient></defs><defs><linearGradient id="grad2_3" x1="0%" y1="0%" x2="100%" y2="100%"><stop offset="30%" stop-color="#002c6e" stop-opacity="1"></stop><stop offset="70%" stop-color="#004372" stop-opacity="1"></stop></linearGradient></defs><defs><linearGradient id="grad2_4" x1="0%" y1="0%" x2="100%" y2="100%"><stop offset="30%" stop-color="#002c6e" stop-opacity="1"></stop><stop offset="70%" stop-color="#000b58" stop-opacity="1"></stop></linearGradient></defs><g transform="translate(540, 0)"><path d="M0 297C-26 292.9 -51.9 288.9 -75.1 280.1C-98.2 271.4 -118.5 258 -143 247.7C-167.5 237.4 -196.2 230.3 -210 210C-223.8 189.7 -222.7 156.4 -226.9 131C-231.1 105.6 -240.5 88.3 -253.1 67.8C-265.6 47.3 -281.3 23.7 -297 0L0 0Z" fill="#001e65"></path><path d="M0 237.6C-20.8 234.3 -41.5 231.1 -60 224.1C-78.6 217.1 -94.8 206.4 -114.4 198.1C-134 189.9 -157 184.2 -168 168C-179.1 151.8 -178.2 125.1 -181.5 104.8C-184.9 84.5 -192.4 70.6 -202.5 54.2C-212.5 37.9 -225.1 18.9 -237.6 0L0 0Z" fill="#003872"></path><path d="M0 178.2C-15.6 175.8 -31.2 173.3 -45 168.1C-58.9 162.8 -71.1 154.8 -85.8 148.6C-100.5 142.4 -117.7 138.2 -126 126C-134.3 113.8 -133.6 93.8 -136.1 78.6C-138.6 63.4 -144.3 53 -151.8 40.7C-159.4 28.4 -168.8 14.2 -178.2 0L0 0Z" fill="#004e70"></path><path d="M0 118.8C-10.4 117.2 -20.8 115.5 -30 112C-39.3 108.6 -47.4 103.2 -57.2 99.1C-67 95 -78.5 92.1 -84 84C-89.5 75.9 -89.1 62.5 -90.8 52.4C-92.4 42.3 -96.2 35.3 -101.2 27.1C-106.3 18.9 -112.5 9.5 -118.8 0L0 0Z" fill="#00616a"></path><path d="M0 59.4C-5.2 58.6 -10.4 57.8 -15 56C-19.6 54.3 -23.7 51.6 -28.6 49.5C-33.5 47.5 -39.2 46.1 -42 42C-44.8 37.9 -44.5 31.3 -45.4 26.2C-46.2 21.1 -48.1 17.7 -50.6 13.6C-53.1 9.5 -56.3 4.7 -59.4 0L0 0Z" fill="#006a67"></path></g><g transform="translate(0, 960)"><path d="M0 -297C13.3 -248.2 26.5 -199.4 53.6 -199.9C80.6 -200.5 121.4 -250.4 148.5 -257.2C175.6 -264.1 189 -227.9 197.3 -197.3C205.6 -166.6 208.7 -141.5 205.2 -118.5C201.7 -95.5 191.6 -74.5 205.7 -55.1C219.9 -35.7 258.5 -17.9 297 0L0 0Z" fill="#001e65"></path><path d="M0 -237.6C10.6 -198.6 21.2 -159.5 42.9 -160C64.5 -160.4 97.1 -200.3 118.8 -205.8C140.5 -211.3 151.2 -182.3 157.8 -157.8C164.5 -133.3 167 -113.2 164.2 -94.8C161.4 -76.4 153.3 -59.6 164.6 -44.1C175.9 -28.6 206.8 -14.3 237.6 0L0 0Z" fill="#003872"></path><path d="M0 -178.2C8 -148.9 15.9 -119.6 32.1 -120C48.4 -120.3 72.8 -150.2 89.1 -154.3C105.4 -158.4 113.4 -136.8 118.4 -118.4C123.3 -100 125.2 -84.9 123.1 -71.1C121 -57.3 114.9 -44.7 123.4 -33.1C132 -21.4 155.1 -10.7 178.2 0L0 0Z" fill="#004e70"></path><path d="M0 -118.8C5.3 -99.3 10.6 -79.8 21.4 -80C32.2 -80.2 48.6 -100.1 59.4 -102.9C70.2 -105.6 75.6 -91.2 78.9 -78.9C82.2 -66.7 83.5 -56.6 82.1 -47.4C80.7 -38.2 76.6 -29.8 82.3 -22.1C88 -14.3 103.4 -7.1 118.8 0L0 0Z" fill="#00616a"></path><path d="M0 -59.4C2.7 -49.6 5.3 -39.9 10.7 -40C16.1 -40.1 24.3 -50.1 29.7 -51.4C35.1 -52.8 37.8 -45.6 39.5 -39.5C41.1 -33.3 41.7 -28.3 41 -23.7C40.3 -19.1 38.3 -14.9 41.1 -11C44 -7.1 51.7 -3.6 59.4 0L0 0Z" fill="#006a67"></path></g></svg>