<svg id="visual" viewBox="0 0 540 960" width="540" height="960" xmlns="http://www.w3.org/2000/svg" xmlns:xlink="http://www.w3.org/1999/xlink" version="1.1"><rect x="0" y="0" width="540" height="960" fill="#000e47"></rect><path d="M0 758L6 752.3C12 746.7 24 735.3 36 739.3C48 743.3 60 762.7 72 767C84 771.3 96 760.7 108 749C120 737.3 132 724.7 144 723.2C156 721.7 168 731.3 180 735.2C192 739 204 737 216 741.3C228 745.7 240 756.3 252 755.7C264 755 276 743 288 738.3C300 733.7 312 736.3 324 735.7C336 735 348 731 360 730.8C372 730.7 384 734.3 396 733.7C408 733 420 728 432 729.5C444 731 456 739 468 747.5C480 756 492 765 504 759.5C516 754 528 734 534 724L540 714L540 961L534 961C528 961 516 961 504 961C492 961 480 961 468 961C456 961 444 961 432 961C420 961 408 961 396 961C384 961 372 961 360 961C348 961 336 961 324 961C312 961 300 961 288 961C276 961 264 961 252 961C240 961 228 961 216 961C204 961 192 961 180 961C168 961 156 961 144 961C132 961 120 961 108 961C96 961 84 961 72 961C60 961 48 961 36 961C24 961 12 961 6 961L0 961Z" fill="#006a67"></path><path d="M0 781L6 788C12 795 24 809 36 814.8C48 820.7 60 818.3 72 821.2C84 824 96 832 108 824C120 816 132 792 144 786.3C156 780.7 168 793.3 180 796.5C192 799.7 204 793.3 216 800.2C228 807 240 827 252 828.5C264 830 276 813 288 811C300 809 312 822 324 816.2C336 810.3 348 785.7 360 774.2C372 762.7 384 764.3 396 771.5C408 778.7 420 791.3 432 794.7C444 798 456 792 468 796C480 800 492 814 504 811.3C516 808.7 528 789.3 534 779.7L540 770L540 961L534 961C528 961 516 961 504 961C492 961 480 961 468 961C456 961 444 961 432 961C420 961 408 961 396 961C384 961 372 961 360 961C348 961 336 961 324 961C312 961 300 961 288 961C276 961 264 961 252 961C240 961 228 961 216 961C204 961 192 961 180 961C168 961 156 961 144 961C132 961 120 961 108 961C96 961 84 961 72 961C60 961 48 961 36 961C24 961 12 961 6 961L0 961Z" fill="#005275"></path><path d="M0 829L6 836.3C12 843.7 24 858.3 36 860.7C48 863 60 853 72 845.3C84 837.7 96 832.3 108 836.3C120 840.3 132 853.7 144 859.5C156 865.3 168 863.7 180 858.8C192 854 204 846 216 850C228 854 240 870 252 868.7C264 867.3 276 848.7 288 846C300 843.3 312 856.7 324 864.7C336 872.7 348 875.3 360 878.5C372 881.7 384 885.3 396 876.3C408 867.3 420 845.7 432 833.7C444 821.7 456 819.3 468 821.7C480 824 492 831 504 834.5C516 838 528 838 534 838L540 838L540 961L534 961C528 961 516 961 504 961C492 961 480 961 468 961C456 961 444 961 432 961C420 961 408 961 396 961C384 961 372 961 360 961C348 961 336 961 324 961C312 961 300 961 288 961C276 961 264 961 252 961C240 961 228 961 216 961C204 961 192 961 180 961C168 961 156 961 144 961C132 961 120 961 108 961C96 961 84 961 72 961C60 961 48 961 36 961C24 961 12 961 6 961L0 961Z" fill="#00326c"></path><path d="M0 882L6 886.2C12 890.3 24 898.7 36 907C48 915.3 60 923.7 72 922.3C84 921 96 910 108 900.7C120 891.3 132 883.7 144 889C156 894.3 168 912.7 180 915.5C192 918.3 204 905.7 216 906.2C228 906.7 240 920.3 252 916.7C264 913 276 892 288 891.3C300 890.7 312 910.3 324 914.3C336 918.3 348 906.7 360 904.8C372 903 384 911 396 913.8C408 916.7 420 914.3 432 912.2C444 910 456 908 468 907.5C480 907 492 908 504 908.5C516 909 528 909 534 909L540 909L540 961L534 961C528 961 516 961 504 961C492 961 480 961 468 961C456 961 444 961 432 961C420 961 408 961 396 961C384 961 372 961 360 961C348 961 336 961 324 961C312 961 300 961 288 961C276 961 264 961 252 961C240 961 228 961 216 961C204 961 192 961 180 961C168 961 156 961 144 961C132 961 120 961 108 961C96 961 84 961 72 961C60 961 48 961 36 961C24 961 12 961 6 961L0 961Z" fill="#000b58"></path></svg>