<svg id="visual" viewBox="0 0 540 960" width="540" height="960" xmlns="http://www.w3.org/2000/svg" xmlns:xlink="http://www.w3.org/1999/xlink" version="1.1"><rect x="0" y="0" width="540" height="960" fill="#001220"></rect><path d="M0 792L12.8 796.2C25.7 800.3 51.3 808.7 77 803.7C102.7 798.7 128.3 780.3 154 778.5C179.7 776.7 205.3 791.3 231.2 794.3C257 797.3 283 788.7 308.8 787.5C334.7 786.3 360.3 792.7 386 790.2C411.7 787.7 437.3 776.3 463 766.5C488.7 756.7 514.3 748.3 527.2 744.2L540 740L540 961L527.2 961C514.3 961 488.7 961 463 961C437.3 961 411.7 961 386 961C360.3 961 334.7 961 308.8 961C283 961 257 961 231.2 961C205.3 961 179.7 961 154 961C128.3 961 102.7 961 77 961C51.3 961 25.7 961 12.8 961L0 961Z" fill="#003161"></path><path d="M0 853L12.8 848.2C25.7 843.3 51.3 833.7 77 823.8C102.7 814 128.3 804 154 806.2C179.7 808.3 205.3 822.7 231.2 822.2C257 821.7 283 806.3 308.8 809.5C334.7 812.7 360.3 834.3 386 843.8C411.7 853.3 437.3 850.7 463 843.8C488.7 837 514.3 826 527.2 820.5L540 815L540 961L527.2 961C514.3 961 488.7 961 463 961C437.3 961 411.7 961 386 961C360.3 961 334.7 961 308.8 961C283 961 257 961 231.2 961C205.3 961 179.7 961 154 961C128.3 961 102.7 961 77 961C51.3 961 25.7 961 12.8 961L0 961Z" fill="#003e88"></path><path d="M0 824L12.8 825.7C25.7 827.3 51.3 830.7 77 839.3C102.7 848 128.3 862 154 864.5C179.7 867 205.3 858 231.2 850.2C257 842.3 283 835.7 308.8 834C334.7 832.3 360.3 835.7 386 841.2C411.7 846.7 437.3 854.3 463 858.3C488.7 862.3 514.3 862.7 527.2 862.8L540 863L540 961L527.2 961C514.3 961 488.7 961 463 961C437.3 961 411.7 961 386 961C360.3 961 334.7 961 308.8 961C283 961 257 961 231.2 961C205.3 961 179.7 961 154 961C128.3 961 102.7 961 77 961C51.3 961 25.7 961 12.8 961L0 961Z" fill="#094aaf"></path><path d="M0 916L12.8 914.5C25.7 913 51.3 910 77 911.8C102.7 913.7 128.3 920.3 154 923.2C179.7 926 205.3 925 231.2 923.7C257 922.3 283 920.7 308.8 915.7C334.7 910.7 360.3 902.3 386 903.8C411.7 905.3 437.3 916.7 463 916.3C488.7 916 514.3 904 527.2 898L540 892L540 961L527.2 961C514.3 961 488.7 961 463 961C437.3 961 411.7 961 386 961C360.3 961 334.7 961 308.8 961C283 961 257 961 231.2 961C205.3 961 179.7 961 154 961C128.3 961 102.7 961 77 961C51.3 961 25.7 961 12.8 961L0 961Z" fill="#2954d6"></path></svg>