<svg id="visual" viewBox="0 0 540 960" width="540" height="960" xmlns="http://www.w3.org/2000/svg" xmlns:xlink="http://www.w3.org/1999/xlink" version="1.1"><g stroke-width="1" stroke-linejoin="bevel"><path d="M241.4 515.9L312.6 457.1L235.4 443.1Z" fill="#002e5a" stroke="#002e5a"></path><path d="M241.4 515.9L322.6 532.9L312.6 457.1Z" fill="#011e36" stroke="#011e36"></path><path d="M312.6 457.1L290.6 386.2L235.4 443.1Z" fill="#021829" stroke="#021829"></path><path d="M172.3 428.1L167.3 510.9L235.4 443.1Z" fill="#003161" stroke="#003161"></path><path d="M235.4 443.1L167.3 510.9L241.4 515.9Z" fill="#00213d" stroke="#00213d"></path><path d="M241.4 515.9L301.6 598.8L322.6 532.9Z" fill="#021422" stroke="#021422"></path><path d="M252.4 356.2L172.3 428.1L235.4 443.1Z" fill="#011b2f" stroke="#011b2f"></path><path d="M388.7 523.9L379.7 438.1L312.6 457.1Z" fill="#00274b" stroke="#00274b"></path><path d="M312.6 457.1L379.7 438.1L290.6 386.2Z" fill="#00101c" stroke="#00101c"></path><path d="M306.6 310.4L252.4 356.2L290.6 386.2Z" fill="#002b52" stroke="#002b52"></path><path d="M290.6 386.2L252.4 356.2L235.4 443.1Z" fill="#011e36" stroke="#011e36"></path><path d="M211.4 593.8L301.6 598.8L241.4 515.9Z" fill="#003161" stroke="#003161"></path><path d="M322.6 532.9L388.7 523.9L312.6 457.1Z" fill="#002b52" stroke="#002b52"></path><path d="M383.7 601.8L388.7 523.9L322.6 532.9Z" fill="#011b2f" stroke="#011b2f"></path><path d="M167.3 510.9L211.4 593.8L241.4 515.9Z" fill="#002444" stroke="#002444"></path><path d="M167.3 510.9L157.3 588.8L211.4 593.8Z" fill="#002b52" stroke="#002b52"></path><path d="M86.1 512.9L157.3 588.8L167.3 510.9Z" fill="#002444" stroke="#002444"></path><path d="M479.9 455.1L406.7 388.2L379.7 438.1Z" fill="#002444" stroke="#002444"></path><path d="M379.7 438.1L406.7 388.2L290.6 386.2Z" fill="#003161" stroke="#003161"></path><path d="M252.4 356.2L148.3 364.2L172.3 428.1Z" fill="#021829" stroke="#021829"></path><path d="M79.1 460.1L86.1 512.9L167.3 510.9Z" fill="#021829" stroke="#021829"></path><path d="M301.6 598.8L383.7 601.8L322.6 532.9Z" fill="#00213d" stroke="#00213d"></path><path d="M388.7 523.9L467.9 515.9L379.7 438.1Z" fill="#011b2f" stroke="#011b2f"></path><path d="M406.7 388.2L306.6 310.4L290.6 386.2Z" fill="#002b52" stroke="#002b52"></path><path d="M252.4 356.2L160.3 305.4L148.3 364.2Z" fill="#011b2f" stroke="#011b2f"></path><path d="M141.3 659.6L237.4 651.6L211.4 593.8Z" fill="#002b52" stroke="#002b52"></path><path d="M211.4 593.8L237.4 651.6L301.6 598.8Z" fill="#003161" stroke="#003161"></path><path d="M301.6 598.8L375.7 651.6L383.7 601.8Z" fill="#021422" stroke="#021422"></path><path d="M237.4 651.6L290.6 658.6L301.6 598.8Z" fill="#021422" stroke="#021422"></path><path d="M79.1 460.1L167.3 510.9L172.3 428.1Z" fill="#002444" stroke="#002444"></path><path d="M71.1 384.2L79.1 460.1L172.3 428.1Z" fill="#003161" stroke="#003161"></path><path d="M452.9 579.8L467.9 515.9L388.7 523.9Z" fill="#021829" stroke="#021829"></path><path d="M215.4 277.4L160.3 305.4L252.4 356.2Z" fill="#021829" stroke="#021829"></path><path d="M148.3 364.2L71.1 384.2L172.3 428.1Z" fill="#003161" stroke="#003161"></path><path d="M290.6 658.6L375.7 651.6L301.6 598.8Z" fill="#002e5a" stroke="#002e5a"></path><path d="M383.7 601.8L452.9 579.8L388.7 523.9Z" fill="#00101c" stroke="#00101c"></path><path d="M306.6 310.4L215.4 277.4L252.4 356.2Z" fill="#00101c" stroke="#00101c"></path><path d="M439.9 641.6L452.9 579.8L383.7 601.8Z" fill="#00213d" stroke="#00213d"></path><path d="M467.9 515.9L479.9 455.1L379.7 438.1Z" fill="#00213d" stroke="#00213d"></path><path d="M479.9 455.1L450.9 365.2L406.7 388.2Z" fill="#011b2f" stroke="#011b2f"></path><path d="M406.7 388.2L394.7 303.4L306.6 310.4Z" fill="#00213d" stroke="#00213d"></path><path d="M450.9 365.2L394.7 303.4L406.7 388.2Z" fill="#00274b" stroke="#00274b"></path><path d="M308.6 207.5L221.4 214.5L215.4 277.4Z" fill="#002444" stroke="#002444"></path><path d="M86.1 512.9L93.1 603.8L157.3 588.8Z" fill="#011e36" stroke="#011e36"></path><path d="M157.3 588.8L141.3 659.6L211.4 593.8Z" fill="#011b2f" stroke="#011b2f"></path><path d="M94.1 653.6L93.1 603.8L0 612.8Z" fill="#002e5a" stroke="#002e5a"></path><path d="M97.1 301.4L71.1 384.2L148.3 364.2Z" fill="#002b52" stroke="#002b52"></path><path d="M0 531.9L93.1 603.8L86.1 512.9Z" fill="#011e36" stroke="#011e36"></path><path d="M93.1 603.8L141.3 659.6L157.3 588.8Z" fill="#021422" stroke="#021422"></path><path d="M237.4 651.6L309.6 716.5L290.6 658.6Z" fill="#002e5a" stroke="#002e5a"></path><path d="M375.7 651.6L439.9 641.6L383.7 601.8Z" fill="#00213d" stroke="#00213d"></path><path d="M540 581.8L540 502.9L467.9 515.9Z" fill="#00274b" stroke="#00274b"></path><path d="M290.6 658.6L309.6 716.5L375.7 651.6Z" fill="#002444" stroke="#002444"></path><path d="M375.7 651.6L402.7 736.5L439.9 641.6Z" fill="#002444" stroke="#002444"></path><path d="M209.4 746.5L309.6 716.5L237.4 651.6Z" fill="#003161" stroke="#003161"></path><path d="M169.3 239.5L97.1 301.4L160.3 305.4Z" fill="#021422" stroke="#021422"></path><path d="M160.3 305.4L97.1 301.4L148.3 364.2Z" fill="#00274b" stroke="#00274b"></path><path d="M93.1 603.8L94.1 653.6L141.3 659.6Z" fill="#00101c" stroke="#00101c"></path><path d="M141.3 659.6L209.4 746.5L237.4 651.6Z" fill="#00274b" stroke="#00274b"></path><path d="M0 457.1L86.1 512.9L79.1 460.1Z" fill="#002e5a" stroke="#002e5a"></path><path d="M215.4 277.4L169.3 239.5L160.3 305.4Z" fill="#00213d" stroke="#00213d"></path><path d="M221.4 214.5L169.3 239.5L215.4 277.4Z" fill="#00274b" stroke="#00274b"></path><path d="M460.9 218.5L370.7 239.5L394.7 303.4Z" fill="#011e36" stroke="#011e36"></path><path d="M394.7 303.4L370.7 239.5L306.6 310.4Z" fill="#00213d" stroke="#00213d"></path><path d="M540 299.4L460.9 295.4L450.9 365.2Z" fill="#011b2f" stroke="#011b2f"></path><path d="M450.9 365.2L460.9 295.4L394.7 303.4Z" fill="#011b2f" stroke="#011b2f"></path><path d="M308.6 207.5L215.4 277.4L306.6 310.4Z" fill="#021829" stroke="#021829"></path><path d="M0 377.2L0 457.1L71.1 384.2Z" fill="#002444" stroke="#002444"></path><path d="M71.1 384.2L0 457.1L79.1 460.1Z" fill="#021829" stroke="#021829"></path><path d="M467.9 515.9L540 502.9L479.9 455.1Z" fill="#002444" stroke="#002444"></path><path d="M479.9 455.1L540 381.2L450.9 365.2Z" fill="#021829" stroke="#021829"></path><path d="M540 581.8L467.9 515.9L452.9 579.8Z" fill="#002e5a" stroke="#002e5a"></path><path d="M370.7 239.5L308.6 207.5L306.6 310.4Z" fill="#002e5a" stroke="#002e5a"></path><path d="M540 502.9L540 446.1L479.9 455.1Z" fill="#011b2f" stroke="#011b2f"></path><path d="M0 457.1L0 531.9L86.1 512.9Z" fill="#021422" stroke="#021422"></path><path d="M137.3 728.5L209.4 746.5L141.3 659.6Z" fill="#011b2f" stroke="#011b2f"></path><path d="M96.1 751.5L137.3 728.5L94.1 653.6Z" fill="#002b52" stroke="#002b52"></path><path d="M94.1 653.6L137.3 728.5L141.3 659.6Z" fill="#002e5a" stroke="#002e5a"></path><path d="M0 311.4L0 377.2L71.1 384.2Z" fill="#00213d" stroke="#00213d"></path><path d="M0 311.4L71.1 384.2L97.1 301.4Z" fill="#011b2f" stroke="#011b2f"></path><path d="M540 446.1L540 381.2L479.9 455.1Z" fill="#002e5a" stroke="#002e5a"></path><path d="M439.9 641.6L540 581.8L452.9 579.8Z" fill="#011e36" stroke="#011e36"></path><path d="M379.7 830.3L402.7 736.5L309.6 716.5Z" fill="#021422" stroke="#021422"></path><path d="M309.6 716.5L402.7 736.5L375.7 651.6Z" fill="#002e5a" stroke="#002e5a"></path><path d="M439.9 641.6L540 672.6L540 581.8Z" fill="#011b2f" stroke="#011b2f"></path><path d="M0 531.9L0 612.8L93.1 603.8Z" fill="#00101c" stroke="#00101c"></path><path d="M57.1 226.5L97.1 301.4L169.3 239.5Z" fill="#021829" stroke="#021829"></path><path d="M57.1 226.5L0 311.4L97.1 301.4Z" fill="#021829" stroke="#021829"></path><path d="M132.3 793.3L212.4 793.3L209.4 746.5Z" fill="#002b52" stroke="#002b52"></path><path d="M209.4 746.5L212.4 793.3L309.6 716.5Z" fill="#002e5a" stroke="#002e5a"></path><path d="M132.3 793.3L209.4 746.5L137.3 728.5Z" fill="#011e36" stroke="#011e36"></path><path d="M460.9 295.4L460.9 218.5L394.7 303.4Z" fill="#00213d" stroke="#00213d"></path><path d="M370.7 239.5L377.7 164.7L308.6 207.5Z" fill="#00101c" stroke="#00101c"></path><path d="M540 235.5L460.9 218.5L460.9 295.4Z" fill="#002e5a" stroke="#002e5a"></path><path d="M540 381.2L540 299.4L450.9 365.2Z" fill="#021829" stroke="#021829"></path><path d="M0 717.5L96.1 751.5L94.1 653.6Z" fill="#00213d" stroke="#00213d"></path><path d="M146.3 125.7L57.1 226.5L169.3 239.5Z" fill="#011e36" stroke="#011e36"></path><path d="M221.4 150.7L169.3 239.5L221.4 214.5Z" fill="#021422" stroke="#021422"></path><path d="M288.6 126.7L221.4 150.7L308.6 207.5Z" fill="#002e5a" stroke="#002e5a"></path><path d="M308.6 207.5L221.4 150.7L221.4 214.5Z" fill="#021422" stroke="#021422"></path><path d="M460.9 218.5L377.7 164.7L370.7 239.5Z" fill="#021422" stroke="#021422"></path><path d="M472.9 742.5L540 672.6L439.9 641.6Z" fill="#021422" stroke="#021422"></path><path d="M0 612.8L0 675.6L94.1 653.6Z" fill="#00274b" stroke="#00274b"></path><path d="M466.9 801.3L472.9 742.5L402.7 736.5Z" fill="#011e36" stroke="#011e36"></path><path d="M402.7 736.5L472.9 742.5L439.9 641.6Z" fill="#002e5a" stroke="#002e5a"></path><path d="M98.1 817.3L132.3 793.3L96.1 751.5Z" fill="#002e5a" stroke="#002e5a"></path><path d="M96.1 751.5L132.3 793.3L137.3 728.5Z" fill="#011b2f" stroke="#011b2f"></path><path d="M377.7 164.7L288.6 126.7L308.6 207.5Z" fill="#011b2f" stroke="#011b2f"></path><path d="M212.4 793.3L307.6 833.3L309.6 716.5Z" fill="#002444" stroke="#002444"></path><path d="M314.6 863.2L307.6 833.3L244.4 871.2Z" fill="#021422" stroke="#021422"></path><path d="M0 137.7L0 237.5L57.1 226.5Z" fill="#002b52" stroke="#002b52"></path><path d="M57.1 226.5L0 237.5L0 311.4Z" fill="#011e36" stroke="#011e36"></path><path d="M0 675.6L0 717.5L94.1 653.6Z" fill="#002e5a" stroke="#002e5a"></path><path d="M540 299.4L540 235.5L460.9 295.4Z" fill="#003161" stroke="#003161"></path><path d="M460.9 218.5L445.9 136.7L377.7 164.7Z" fill="#011e36" stroke="#011e36"></path><path d="M307.6 833.3L379.7 830.3L309.6 716.5Z" fill="#00101c" stroke="#00101c"></path><path d="M176.3 86.8L146.3 125.7L221.4 150.7Z" fill="#011b2f" stroke="#011b2f"></path><path d="M221.4 150.7L146.3 125.7L169.3 239.5Z" fill="#002b52" stroke="#002b52"></path><path d="M379.7 830.3L466.9 801.3L402.7 736.5Z" fill="#011b2f" stroke="#011b2f"></path><path d="M472.9 742.5L540 743.5L540 672.6Z" fill="#002e5a" stroke="#002e5a"></path><path d="M466.9 801.3L540 743.5L472.9 742.5Z" fill="#003161" stroke="#003161"></path><path d="M0 827.3L98.1 817.3L96.1 751.5Z" fill="#021829" stroke="#021829"></path><path d="M132.3 904.2L244.4 871.2L212.4 793.3Z" fill="#003161" stroke="#003161"></path><path d="M540 157.7L445.9 136.7L460.9 218.5Z" fill="#011b2f" stroke="#011b2f"></path><path d="M375.7 84.8L300.6 88.8L288.6 126.7Z" fill="#002444" stroke="#002444"></path><path d="M379.7 830.3L467.9 904.2L466.9 801.3Z" fill="#021422" stroke="#021422"></path><path d="M307.6 833.3L314.6 863.2L379.7 830.3Z" fill="#00101c" stroke="#00101c"></path><path d="M244.4 871.2L307.6 833.3L212.4 793.3Z" fill="#011e36" stroke="#011e36"></path><path d="M375.7 84.8L288.6 126.7L377.7 164.7Z" fill="#011b2f" stroke="#011b2f"></path><path d="M288.6 126.7L245.4 86.8L221.4 150.7Z" fill="#003161" stroke="#003161"></path><path d="M300.6 88.8L245.4 86.8L288.6 126.7Z" fill="#021422" stroke="#021422"></path><path d="M132.3 904.2L212.4 793.3L132.3 793.3Z" fill="#021829" stroke="#021829"></path><path d="M146.3 125.7L62.1 138.7L57.1 226.5Z" fill="#011b2f" stroke="#011b2f"></path><path d="M81.1 56.8L62.1 138.7L146.3 125.7Z" fill="#00274b" stroke="#00274b"></path><path d="M245.4 86.8L176.3 86.8L221.4 150.7Z" fill="#002e5a" stroke="#002e5a"></path><path d="M445.9 136.7L375.7 84.8L377.7 164.7Z" fill="#002b52" stroke="#002b52"></path><path d="M300.6 88.8L291.6 0L245.4 86.8Z" fill="#002e5a" stroke="#002e5a"></path><path d="M153.3 0L81.1 56.8L176.3 86.8Z" fill="#021422" stroke="#021422"></path><path d="M307.6 960L373.7 880.2L314.6 863.2Z" fill="#00101c" stroke="#00101c"></path><path d="M314.6 863.2L373.7 880.2L379.7 830.3Z" fill="#00213d" stroke="#00213d"></path><path d="M466.9 801.3L540 834.3L540 743.5Z" fill="#00274b" stroke="#00274b"></path><path d="M540 235.5L540 157.7L460.9 218.5Z" fill="#021422" stroke="#021422"></path><path d="M445.9 136.7L482.9 52.8L375.7 84.8Z" fill="#011b2f" stroke="#011b2f"></path><path d="M0 827.3L99.1 869.2L98.1 817.3Z" fill="#003161" stroke="#003161"></path><path d="M98.1 817.3L99.1 869.2L132.3 793.3Z" fill="#011b2f" stroke="#011b2f"></path><path d="M244.4 871.2L307.6 960L314.6 863.2Z" fill="#011b2f" stroke="#011b2f"></path><path d="M0 52.8L0 137.7L62.1 138.7Z" fill="#011e36" stroke="#011e36"></path><path d="M62.1 138.7L0 137.7L57.1 226.5Z" fill="#011b2f" stroke="#011b2f"></path><path d="M0 717.5L0 827.3L96.1 751.5Z" fill="#011e36" stroke="#011e36"></path><path d="M467.9 904.2L540 834.3L466.9 801.3Z" fill="#021422" stroke="#021422"></path><path d="M80.1 960L132.3 904.2L99.1 869.2Z" fill="#002444" stroke="#002444"></path><path d="M99.1 869.2L132.3 904.2L132.3 793.3Z" fill="#002e5a" stroke="#002e5a"></path><path d="M176.3 86.8L81.1 56.8L146.3 125.7Z" fill="#003161" stroke="#003161"></path><path d="M225.4 0L176.3 86.8L245.4 86.8Z" fill="#002e5a" stroke="#002e5a"></path><path d="M441.9 960L467.9 904.2L373.7 880.2Z" fill="#00213d" stroke="#00213d"></path><path d="M373.7 880.2L467.9 904.2L379.7 830.3Z" fill="#011b2f" stroke="#011b2f"></path><path d="M540 81.8L482.9 52.8L445.9 136.7Z" fill="#003161" stroke="#003161"></path><path d="M375.7 84.8L291.6 0L300.6 88.8Z" fill="#003161" stroke="#003161"></path><path d="M385.7 0L291.6 0L375.7 84.8Z" fill="#011b2f" stroke="#011b2f"></path><path d="M291.6 0L225.4 0L245.4 86.8Z" fill="#021829" stroke="#021829"></path><path d="M540 157.7L540 81.8L445.9 136.7Z" fill="#00213d" stroke="#00213d"></path><path d="M218.4 960L307.6 960L244.4 871.2Z" fill="#003161" stroke="#003161"></path><path d="M169.3 960L244.4 871.2L132.3 904.2Z" fill="#021829" stroke="#021829"></path><path d="M169.3 960L218.4 960L244.4 871.2Z" fill="#002b52" stroke="#002b52"></path><path d="M0 827.3L0 884.2L99.1 869.2Z" fill="#021422" stroke="#021422"></path><path d="M225.4 0L153.3 0L176.3 86.8Z" fill="#021422" stroke="#021422"></path><path d="M479.9 0L385.7 0L482.9 52.8Z" fill="#002e5a" stroke="#002e5a"></path><path d="M482.9 52.8L385.7 0L375.7 84.8Z" fill="#011b2f" stroke="#011b2f"></path><path d="M80.1 960L169.3 960L132.3 904.2Z" fill="#011b2f" stroke="#011b2f"></path><path d="M307.6 960L384.7 960L373.7 880.2Z" fill="#00274b" stroke="#00274b"></path><path d="M60.1 0L0 52.8L81.1 56.8Z" fill="#011b2f" stroke="#011b2f"></path><path d="M81.1 56.8L0 52.8L62.1 138.7Z" fill="#002e5a" stroke="#002e5a"></path><path d="M540 960L540 903.2L467.9 904.2Z" fill="#002b52" stroke="#002b52"></path><path d="M467.9 904.2L540 903.2L540 834.3Z" fill="#002b52" stroke="#002b52"></path><path d="M384.7 960L441.9 960L373.7 880.2Z" fill="#00274b" stroke="#00274b"></path><path d="M0 884.2L80.1 960L99.1 869.2Z" fill="#002b52" stroke="#002b52"></path><path d="M153.3 0L60.1 0L81.1 56.8Z" fill="#011e36" stroke="#011e36"></path><path d="M540 0L479.9 0L482.9 52.8Z" fill="#011b2f" stroke="#011b2f"></path><path d="M60.1 0L0 0L0 52.8Z" fill="#002e5a" stroke="#002e5a"></path><path d="M540 81.8L540 0L482.9 52.8Z" fill="#021422" stroke="#021422"></path><path d="M0 884.2L0 960L80.1 960Z" fill="#011b2f" stroke="#011b2f"></path><path d="M441.9 960L540 960L467.9 904.2Z" fill="#002e5a" stroke="#002e5a"></path></g></svg>