<svg id="visual" viewBox="0 0 450 900" width="450" height="900" xmlns="http://www.w3.org/2000/svg" xmlns:xlink="http://www.w3.org/1999/xlink" version="1.1"><rect width="450" height="900" fill="#000b58"></rect><g><g transform="translate(283 471)"><path d="M38.7 -27.9C48.2 -18.9 52.7 -3 49.2 10.9C45.8 24.7 34.5 36.4 22.4 39.6C10.2 42.9 -2.7 37.7 -15.9 31.8C-29.1 25.9 -42.6 19.3 -46.5 8.8C-50.4 -1.8 -44.7 -16.5 -35.3 -25.4C-26 -34.3 -13 -37.5 0.8 -38.2C14.6 -38.8 29.2 -36.9 38.7 -27.9Z" fill="#003161"></path></g><g transform="translate(32 684)"><path d="M23.9 -22.7C28.3 -13.4 27.5 -3.7 26.1 7.3C24.6 18.2 22.5 30.2 15.6 34.3C8.7 38.3 -2.9 34.2 -12.7 28.6C-22.5 23.1 -30.5 15.9 -33.7 6.5C-36.8 -3 -35 -14.8 -28.6 -24.5C-22.2 -34.2 -11.1 -41.9 -0.7 -41.3C9.7 -40.8 19.4 -32 23.9 -22.7Z" fill="#003161"></path></g><g transform="translate(158 98)"><path d="M24.4 -20.1C30.6 -11.6 34 -1.6 31.9 7.2C29.8 16 22.4 23.4 13.2 28.1C4.1 32.7 -6.7 34.4 -17 31.1C-27.3 27.7 -37.2 19.2 -39.8 8.8C-42.4 -1.6 -37.6 -13.9 -29.8 -22.7C-21.9 -31.5 -11 -36.8 -0.9 -36C9.1 -35.3 18.2 -28.5 24.4 -20.1Z" fill="#003161"></path></g><g transform="translate(419 307)"><path d="M14.7 -13.1C17.6 -8 17.6 -2 16.3 3.6C14.9 9.1 12.1 14.2 7 18.1C1.9 21.9 -5.6 24.5 -10.5 22C-15.5 19.6 -18 12.1 -18.2 5.7C-18.4 -0.7 -16.4 -6.1 -13 -11.2C-9.6 -16.4 -4.8 -21.4 0.5 -21.9C5.9 -22.3 11.7 -18.2 14.7 -13.1Z" fill="#003161"></path></g><g transform="translate(132 592)"><path d="M25.9 -21.5C32.1 -12.9 34.7 -2.2 32.5 7.5C30.4 17.3 23.6 26 14.1 31.4C4.6 36.9 -7.6 38.9 -17.8 34.8C-28.1 30.8 -36.4 20.5 -37.5 10.1C-38.6 -0.2 -32.5 -10.7 -25.1 -19.6C-17.6 -28.5 -8.8 -35.9 0.5 -36.3C9.9 -36.7 19.7 -30.2 25.9 -21.5Z" fill="#003161"></path></g><g transform="translate(268 718)"><path d="M16 -12.3C20.3 -7.3 23.2 -0.7 21.9 5.1C20.7 11 15.4 16 9.3 18.7C3.2 21.4 -3.7 21.7 -10.8 19.4C-17.9 17.2 -25.3 12.3 -26.4 6.3C-27.6 0.3 -22.6 -6.8 -17.1 -12.1C-11.7 -17.3 -5.8 -20.6 0 -20.5C5.8 -20.5 11.6 -17.2 16 -12.3Z" fill="#003161"></path></g><g transform="translate(18 244)"><path d="M31.8 -25.4C40.5 -14.4 46.4 -1.3 43.8 9.9C41.2 21.1 30.1 30.4 19 33.4C7.8 36.5 -3.4 33.4 -13.6 28.4C-23.9 23.4 -33.2 16.6 -37 6.5C-40.8 -3.5 -39.1 -16.7 -32 -27.3C-24.9 -37.9 -12.5 -45.9 -0.5 -45.5C11.5 -45.1 23.1 -36.4 31.8 -25.4Z" fill="#003161"></path></g><g transform="translate(329 169)"><path d="M22.9 -17.5C27.9 -12.1 28.8 -2.7 26.4 5.4C24.1 13.5 18.5 20.2 11 24.5C3.5 28.7 -6 30.5 -11.4 26.7C-16.8 23 -18.1 13.7 -18.9 5.6C-19.7 -2.5 -20 -9.4 -16.8 -14.4C-13.6 -19.4 -6.8 -22.6 1.1 -23.5C9 -24.3 18 -22.9 22.9 -17.5Z" fill="#003161"></path></g><g transform="translate(165 349)"><path d="M21 -15.1C26 -10.5 28 -1.8 25.6 4.6C23.1 11 16.2 15.1 9.7 17.2C3.1 19.3 -3.1 19.2 -8.6 16.9C-14.1 14.6 -18.9 10 -21 3.9C-23.1 -2.2 -22.5 -9.9 -18.6 -14.2C-14.6 -18.6 -7.3 -19.8 0.4 -20.1C8 -20.3 16.1 -19.8 21 -15.1Z" fill="#003161"></path></g><g transform="translate(411 831)"><path d="M32.3 -27.6C38.8 -17.6 38.9 -4.4 34.5 5.1C30.2 14.5 21.3 20.2 11.1 26.3C0.9 32.5 -10.6 39.2 -19.7 36.5C-28.8 33.8 -35.6 21.7 -36.5 10.4C-37.5 -0.9 -32.7 -11.6 -25.6 -21.7C-18.5 -31.8 -9.3 -41.4 1.8 -42.8C12.9 -44.2 25.8 -37.6 32.3 -27.6Z" fill="#003161"></path></g><g transform="translate(109 815)"><path d="M20.7 -15.1C26 -9.8 29 -1.2 27.5 6.6C26 14.5 20 21.7 12.7 24.5C5.5 27.2 -3 25.5 -9 21.5C-15.1 17.6 -18.7 11.3 -21.4 3.7C-24.1 -4 -25.9 -13.1 -22.2 -18C-18.5 -22.9 -9.3 -23.6 -0.8 -23C7.7 -22.4 15.4 -20.4 20.7 -15.1Z" fill="#003161"></path></g><g transform="translate(44 17)"><path d="M19.9 -16.8C26.6 -7.4 33.5 0.9 33.2 9.9C33 18.9 25.7 28.5 16.9 31.5C8 34.4 -2.4 30.5 -10.7 25.3C-19 20.1 -25.1 13.6 -28.5 4.7C-32 -4.2 -32.8 -15.5 -27.6 -24.5C-22.4 -33.6 -11.2 -40.4 -2.3 -38.6C6.6 -36.7 13.1 -26.2 19.9 -16.8Z" fill="#003161"></path></g><g transform="translate(423 476)"><path d="M16.2 -11C20.8 -7.1 24.3 -0.4 23.6 6.4C22.9 13.3 18 20.2 11.3 23.5C4.5 26.8 -4 26.4 -10.2 22.8C-16.3 19.2 -20.1 12.3 -20.8 5.8C-21.4 -0.8 -19 -7 -15.1 -10.7C-11.1 -14.4 -5.5 -15.6 0.1 -15.7C5.8 -15.8 11.6 -14.8 16.2 -11Z" fill="#003161"></path></g><g transform="translate(397 652)"><path d="M16.6 -14C20.3 -8.5 21.5 -1.7 21 6.7C20.6 15 18.7 24.8 11.8 30.3C5 35.8 -6.7 37 -14.5 32.4C-22.3 27.8 -26.3 17.3 -28.4 6.8C-30.5 -3.7 -30.7 -14.2 -25.7 -20C-20.7 -25.8 -10.3 -27 -2 -25.4C6.4 -23.8 12.8 -19.6 16.6 -14Z" fill="#003161"></path></g><g transform="translate(388 35)"><path d="M13.8 -10.5C17.9 -5.7 21.5 0 21.2 6.2C20.8 12.4 16.6 19.1 11.1 20.9C5.6 22.7 -1.3 19.7 -6.5 16.2C-11.8 12.6 -15.6 8.5 -17.9 2.8C-20.3 -2.9 -21.2 -10.3 -17.9 -14.8C-14.7 -19.3 -7.4 -21.1 -1.3 -20C4.8 -19 9.6 -15.2 13.8 -10.5Z" fill="#003161"></path></g><g transform="translate(269 869)"><path d="M16.2 -13.1C19.8 -8.4 20.7 -1.7 19.3 4.3C17.8 10.3 14 15.7 8.9 17.9C3.8 20.2 -2.5 19.3 -7.4 16.5C-12.2 13.7 -15.6 9 -16.9 3.8C-18.2 -1.5 -17.4 -7.4 -14.3 -12C-11.1 -16.7 -5.5 -20.1 0.4 -20.4C6.3 -20.7 12.6 -17.9 16.2 -13.1Z" fill="#003161"></path></g></g></svg>