<svg id="visual" viewBox="0 0 450 900" width="450" height="900" xmlns="http://www.w3.org/2000/svg" xmlns:xlink="http://www.w3.org/1999/xlink" version="1.1"><rect width="450" height="900" fill="#000b58"></rect><g><g transform="translate(159 593)"><path d="M29.5 -22.6C38.5 -12.3 46 -0.1 43.4 9.4C40.9 18.8 28.1 25.4 16.4 29C4.8 32.7 -5.8 33.4 -16 29.8C-26.2 26.2 -36 18.4 -38.5 8.5C-40.9 -1.3 -36 -13.1 -28.4 -23C-20.8 -33 -10.4 -41.1 0 -41.1C10.3 -41 20.6 -32.8 29.5 -22.6Z" fill="#003161"></path></g><g transform="translate(329 38)"><path d="M30.1 -25.6C35.3 -17.4 33.4 -5.1 29.9 5.3C26.3 15.7 21 24.1 12.4 29.9C3.8 35.6 -8.1 38.6 -16.9 34.6C-25.8 30.6 -31.4 19.5 -34 7.9C-36.5 -3.8 -36 -16 -29.8 -24.4C-23.6 -32.8 -11.8 -37.4 0.3 -37.6C12.4 -37.9 24.8 -33.8 30.1 -25.6Z" fill="#003161"></path></g><g transform="translate(132 734)"><path d="M35.7 -25.2C44 -18.2 46.7 -3.4 43.4 9.5C40.1 22.3 30.8 33.4 19.9 37C9 40.5 -3.4 36.6 -15.4 31.1C-27.5 25.7 -39.4 18.7 -41.5 9.4C-43.7 0.2 -36.2 -11.4 -27.7 -18.5C-19.1 -25.6 -9.6 -28.3 2.1 -29.9C13.7 -31.6 27.5 -32.2 35.7 -25.2Z" fill="#003161"></path></g><g transform="translate(3 685)"><path d="M26.5 -19.7C33.2 -12.7 36.8 -1.7 34.4 7.4C31.9 16.5 23.4 23.7 13.3 29.2C3.2 34.6 -8.5 38.3 -16.6 34.4C-24.6 30.6 -28.9 19.1 -30.7 8C-32.4 -3.1 -31.6 -13.9 -26.1 -20.6C-20.5 -27.4 -10.3 -30.3 -0.2 -30.1C9.9 -29.9 19.8 -26.8 26.5 -19.7Z" fill="#003161"></path></g><g transform="translate(115 413)"><path d="M24 -18.2C31 -10.3 36.5 -0.4 34.4 7.6C32.4 15.5 22.8 21.5 13 25.7C3.2 29.9 -6.8 32.3 -12.8 28.6C-18.7 24.9 -20.7 15.1 -21.2 6.6C-21.7 -1.8 -20.7 -8.7 -16.9 -15.9C-13.1 -23 -6.6 -30.4 1 -31.1C8.5 -31.9 17 -26.1 24 -18.2Z" fill="#003161"></path></g><g transform="translate(155 888)"><path d="M24.9 -16.7C33.4 -9.2 42.3 1.2 41.9 12.2C41.5 23.1 31.8 34.5 20.3 38.8C8.7 43.1 -4.7 40.3 -16.9 34.6C-29.1 28.9 -40.1 20.3 -41.8 10.3C-43.5 0.2 -35.9 -11.2 -27.4 -18.7C-18.9 -26.3 -9.5 -30 -0.6 -29.5C8.2 -29 16.4 -24.3 24.9 -16.7Z" fill="#003161"></path></g><g transform="translate(134 150)"><path d="M13.3 -11.4C17 -6 19.5 -0.5 18.5 4.3C17.5 9.1 12.9 13.2 7.1 16.9C1.2 20.6 -5.9 23.9 -11.3 21.9C-16.6 19.9 -20.2 12.7 -21.7 5.1C-23.3 -2.4 -22.9 -10.2 -19 -15.6C-15 -21.1 -7.5 -24.2 -1.3 -23.1C4.8 -22.1 9.7 -16.8 13.3 -11.4Z" fill="#003161"></path></g><g transform="translate(328 389)"><path d="M29.1 -20.7C36.1 -14.4 39.1 -2.4 35.4 5.8C31.7 14.1 21.4 18.6 11.6 22.8C1.8 26.9 -7.5 30.9 -16.3 28.6C-25.2 26.4 -33.6 18 -35.1 8.8C-36.6 -0.4 -31.1 -10.4 -24.1 -16.7C-17.1 -23 -8.5 -25.7 1.3 -26.7C11 -27.7 22.1 -27 29.1 -20.7Z" fill="#003161"></path></g><g transform="translate(417 606)"><path d="M23.2 -18C28.4 -11.9 30 -2.3 28.7 7.8C27.3 17.8 23.1 28.5 15.5 32.2C7.8 35.8 -3.1 32.6 -11.4 27.3C-19.8 21.9 -25.4 14.5 -26.7 6.6C-28.1 -1.2 -25.2 -9.5 -20.1 -15.6C-14.9 -21.7 -7.4 -25.5 0.8 -26.1C9 -26.7 17.9 -24 23.2 -18Z" fill="#003161"></path></g><g transform="translate(104 286)"><path d="M15 -13.3C18.8 -7.2 20.8 -1 19.3 3.9C17.8 8.9 12.8 12.6 6.8 16.4C0.7 20.2 -6.4 24.2 -10.4 22.1C-14.4 20 -15.3 11.8 -16.3 4.6C-17.2 -2.7 -18.3 -9.1 -15.6 -14.9C-12.9 -20.7 -6.5 -26 -0.4 -25.6C5.6 -25.3 11.2 -19.3 15 -13.3Z" fill="#003161"></path></g><g transform="translate(341 752)"><path d="M23.4 -18.9C27.7 -13.2 26.9 -3.6 24.6 5.1C22.2 13.9 18.3 21.8 11.4 26.1C4.4 30.4 -5.4 31.1 -13.3 27.4C-21.2 23.7 -27.1 15.6 -28.2 7.4C-29.4 -0.8 -25.7 -9.2 -20.2 -15.2C-14.7 -21.2 -7.4 -24.8 1.1 -25.6C9.5 -26.5 19 -24.6 23.4 -18.9Z" fill="#003161"></path></g><g transform="translate(82 37)"><path d="M24.8 -19.9C31.8 -10.9 37 -0.6 34.7 7.3C32.4 15.3 22.6 20.9 13.2 24.3C3.7 27.7 -5.3 28.8 -15.4 26.1C-25.4 23.5 -36.4 17.2 -38.6 8.5C-40.8 -0.1 -34.2 -11 -26.3 -20.3C-18.4 -29.5 -9.2 -37 -0.2 -36.8C8.9 -36.7 17.7 -29 24.8 -19.9Z" fill="#003161"></path></g><g transform="translate(267 163)"><path d="M20.9 -20.6C26 -10.1 28.5 -1.5 28.2 9.1C27.9 19.8 24.8 32.4 15.7 39.5C6.5 46.6 -8.7 48.1 -20.5 42.5C-32.3 36.8 -40.7 24 -43.9 10C-47 -4 -45 -19.1 -36.8 -30.3C-28.7 -41.4 -14.3 -48.5 -3.2 -46C7.8 -43.4 15.7 -31.1 20.9 -20.6Z" fill="#003161"></path></g><g transform="translate(308 533)"><path d="M25.7 -19.2C32.2 -12.4 35.6 -1.7 33.2 7.1C30.8 16 22.6 23 14 26C5.3 29 -3.8 28 -10.8 24C-17.8 20.1 -22.6 13.2 -23.7 6.1C-24.8 -1 -22.2 -8.3 -17.6 -14.7C-13 -21.2 -6.5 -26.8 1.5 -28C9.6 -29.2 19.2 -26.1 25.7 -19.2Z" fill="#003161"></path></g><g transform="translate(421 217)"><path d="M12.7 -10.7C15.4 -6.8 15.7 -1.6 14.9 4C14.1 9.6 12.2 15.5 8 18C3.9 20.5 -2.5 19.6 -8.2 16.9C-13.9 14.2 -18.8 9.8 -19.8 4.7C-20.8 -0.3 -17.8 -6.1 -13.9 -10.3C-9.9 -14.4 -5 -16.9 0 -17C5 -17 10.1 -14.5 12.7 -10.7Z" fill="#003161"></path></g><g transform="translate(30 873)"><path d="M24.5 -20.2C30.5 -12 33.2 -1.9 31.8 8.4C30.3 18.6 24.6 29 16.3 32.5C8 35.9 -3 32.4 -12.6 27.3C-22.2 22.3 -30.4 15.5 -31.5 8C-32.5 0.5 -26.4 -7.8 -20 -16.1C-13.5 -24.4 -6.8 -32.7 1.2 -33.7C9.2 -34.7 18.5 -28.4 24.5 -20.2Z" fill="#003161"></path></g><g transform="translate(216 342)"><path d="M19.4 -17.2C25 -8.6 29 -0.5 28.7 8.9C28.4 18.2 23.7 28.9 16.4 31.3C9.1 33.8 -0.9 28.1 -9.7 22.8C-18.6 17.6 -26.4 12.7 -28.4 5.9C-30.4 -0.8 -26.5 -9.4 -20.8 -18.1C-15.1 -26.7 -7.5 -35.4 -0.3 -35.1C7 -34.9 13.9 -25.8 19.4 -17.2Z" fill="#003161"></path></g><g transform="translate(269 848)"><path d="M29.7 -22.4C35.6 -16.4 35.3 -4.2 32.6 7.2C29.8 18.6 24.4 29.1 16.4 32.4C8.3 35.7 -2.6 31.8 -12.1 26.6C-21.6 21.4 -29.7 15 -30.9 7.7C-32 0.4 -26.1 -7.9 -19.8 -14C-13.5 -20.1 -6.7 -24.1 2.6 -26.2C11.9 -28.3 23.9 -28.4 29.7 -22.4Z" fill="#003161"></path></g><g transform="translate(208 56)"><path d="M21.9 -16.8C25.7 -12.7 24.2 -3.8 21.1 2.8C18 9.3 13.2 13.4 7.2 17.1C1.2 20.8 -6 24.2 -11.7 22.2C-17.3 20.3 -21.3 13 -22.4 5.8C-23.6 -1.5 -21.8 -8.7 -17.6 -12.9C-13.4 -17.1 -6.7 -18.3 1.2 -19.2C9.1 -20.1 18.1 -20.9 21.9 -16.8Z" fill="#003161"></path></g><g transform="translate(446 370)"><path d="M27.1 -23.2C33.3 -13.8 35.3 -2.6 32.9 7.3C30.5 17.3 23.7 26.1 14.2 31.3C4.8 36.6 -7.2 38.3 -14.7 33.5C-22.2 28.8 -25.2 17.6 -27.8 6.3C-30.3 -4.9 -32.5 -16.3 -27.8 -25.4C-23.1 -34.4 -11.6 -41.2 -0.6 -40.8C10.4 -40.3 20.8 -32.6 27.1 -23.2Z" fill="#003161"></path></g><g transform="translate(442 89)"><path d="M30.6 -23C37.9 -15.3 40.7 -2.7 38 8.5C35.3 19.7 27.1 29.4 16.6 34.3C6.2 39.2 -6.4 39.4 -14.7 34.1C-23 28.7 -27 17.9 -27.4 8.5C-27.7 -1 -24.5 -9 -19.4 -16.2C-14.2 -23.5 -7.1 -30 2.3 -31.8C11.7 -33.6 23.3 -30.8 30.6 -23Z" fill="#003161"></path></g></g></svg>