<svg id="visual" viewBox="0 0 540 960" width="540" height="960" xmlns="http://www.w3.org/2000/svg" xmlns:xlink="http://www.w3.org/1999/xlink" version="1.1"><path d="M0 107L7.5 108.5C15 110 30 113 45 116.2C60 119.3 75 122.7 90 125.8C105 129 120 132 135 130.3C150 128.7 165 122.3 180 117.7C195 113 210 110 225 103.7C240 97.3 255 87.7 270 79.7C285 71.7 300 65.3 315 60.5C330 55.7 345 52.3 360 58.7C375 65 390 81 405 81C420 81 435 65 450 55.3C465 45.7 480 42.3 495 50.3C510 58.3 525 77.7 532.5 87.3L540 97L540 0L532.5 0C525 0 510 0 495 0C480 0 465 0 450 0C435 0 420 0 405 0C390 0 375 0 360 0C345 0 330 0 315 0C300 0 285 0 270 0C255 0 240 0 225 0C210 0 195 0 180 0C165 0 150 0 135 0C120 0 105 0 90 0C75 0 60 0 45 0C30 0 15 0 7.5 0L0 0Z" fill="#000d43"></path><path d="M0 375L7.5 379.8C15 384.7 30 394.3 45 384.8C60 375.3 75 346.7 90 330.7C105 314.7 120 311.3 135 296.8C150 282.3 165 256.7 180 237.5C195 218.3 210 205.7 225 202.5C240 199.3 255 205.7 270 213.7C285 221.7 300 231.3 315 263.3C330 295.3 345 349.7 360 383.3C375 417 390 430 405 409.2C420 388.3 435 333.7 450 312.8C465 292 480 305 495 333.8C510 362.7 525 407.3 532.5 429.7L540 452L540 95L532.5 85.3C525 75.7 510 56.3 495 48.3C480 40.3 465 43.7 450 53.3C435 63 420 79 405 79C390 79 375 63 360 56.7C345 50.3 330 53.7 315 58.5C300 63.3 285 69.7 270 77.7C255 85.7 240 95.3 225 101.7C210 108 195 111 180 115.7C165 120.3 150 126.7 135 128.3C120 130 105 127 90 123.8C75 120.7 60 117.3 45 114.2C30 111 15 108 7.5 106.5L0 105Z" fill="#000d4a"></path><path d="M0 462L7.5 468.3C15 474.7 30 487.3 45 480.8C60 474.3 75 448.7 90 426.3C105 404 120 385 135 364.3C150 343.7 165 321.3 180 322.8C195 324.3 210 349.7 225 368.8C240 388 255 401 270 386.7C285 372.3 300 330.7 315 354.7C330 378.7 345 468.3 360 508.3C375 548.3 390 538.7 405 505C420 471.3 435 413.7 450 394.5C465 375.3 480 394.7 495 425.2C510 455.7 525 497.3 532.5 518.2L540 539L540 450L532.5 427.7C525 405.3 510 360.7 495 331.8C480 303 465 290 450 310.8C435 331.7 420 386.3 405 407.2C390 428 375 415 360 381.3C345 347.7 330 293.3 315 261.3C300 229.3 285 219.7 270 211.7C255 203.7 240 197.3 225 200.5C210 203.7 195 216.3 180 235.5C165 254.7 150 280.3 135 294.8C120 309.3 105 312.7 90 328.7C75 344.7 60 373.3 45 382.8C30 392.3 15 382.7 7.5 377.8L0 373Z" fill="#000c51"></path><path d="M0 587L7.5 604.5C15 622 30 657 45 682.5C60 708 75 724 90 709.7C105 695.3 120 650.7 135 655.5C150 660.3 165 714.7 180 724.2C195 733.7 210 698.3 225 682.3C240 666.3 255 669.7 270 679.3C285 689 300 705 315 717.8C330 730.7 345 740.3 360 727.5C375 714.7 390 679.3 405 640.8C420 602.3 435 560.7 450 568.7C465 576.7 480 634.3 495 677.7C510 721 525 750 532.5 764.5L540 779L540 537L532.5 516.2C525 495.3 510 453.7 495 423.2C480 392.7 465 373.3 450 392.5C435 411.7 420 469.3 405 503C390 536.7 375 546.3 360 506.3C345 466.3 330 376.7 315 352.7C300 328.7 285 370.3 270 384.7C255 399 240 386 225 366.8C210 347.7 195 322.3 180 320.8C165 319.3 150 341.7 135 362.3C120 383 105 402 90 424.3C75 446.7 60 472.3 45 478.8C30 485.3 15 472.7 7.5 466.3L0 460Z" fill="#000b58"></path><path d="M0 788L7.5 792.8C15 797.7 30 807.3 45 809C60 810.7 75 804.3 90 802.7C105 801 120 804 135 810.3C150 816.7 165 826.3 180 832.8C195 839.3 210 842.7 225 850.7C240 858.7 255 871.3 270 861.7C285 852 300 820 315 812C330 804 345 820 360 812C375 804 390 772 405 752.8C420 733.7 435 727.3 450 746.5C465 765.7 480 810.3 495 832.7C510 855 525 855 532.5 855L540 855L540 777L532.5 762.5C525 748 510 719 495 675.7C480 632.3 465 574.7 450 566.7C435 558.7 420 600.3 405 638.8C390 677.3 375 712.7 360 725.5C345 738.3 330 728.7 315 715.8C300 703 285 687 270 677.3C255 667.7 240 664.3 225 680.3C210 696.3 195 731.7 180 722.2C165 712.7 150 658.3 135 653.5C120 648.7 105 693.3 90 707.7C75 722 60 706 45 680.5C30 655 15 620 7.5 602.5L0 585Z" fill="#081269"></path><path d="M0 875L7.5 879.7C15 884.3 30 893.7 45 895.2C60 896.7 75 890.3 90 895.2C105 900 120 916 135 922.5C150 929 165 926 180 919.7C195 913.3 210 903.7 225 905.2C240 906.7 255 919.3 270 919.3C285 919.3 300 906.7 315 898.7C330 890.7 345 887.3 360 885.7C375 884 390 884 405 882.5C420 881 435 878 450 879.7C465 881.3 480 887.7 495 897.2C510 906.7 525 919.3 532.5 925.7L540 932L540 853L532.5 853C525 853 510 853 495 830.7C480 808.3 465 763.7 450 744.5C435 725.3 420 731.7 405 750.8C390 770 375 802 360 810C345 818 330 802 315 810C300 818 285 850 270 859.7C255 869.3 240 856.7 225 848.7C210 840.7 195 837.3 180 830.8C165 824.3 150 814.7 135 808.3C120 802 105 799 90 800.7C75 802.3 60 808.7 45 807C30 805.3 15 795.7 7.5 790.8L0 786Z" fill="#111a7a"></path><path d="M0 961L7.5 961C15 961 30 961 45 961C60 961 75 961 90 961C105 961 120 961 135 961C150 961 165 961 180 961C195 961 210 961 225 961C240 961 255 961 270 961C285 961 300 961 315 961C330 961 345 961 360 961C375 961 390 961 405 961C420 961 435 961 450 961C465 961 480 961 495 961C510 961 525 961 532.5 961L540 961L540 930L532.5 923.7C525 917.3 510 904.7 495 895.2C480 885.7 465 879.3 450 877.7C435 876 420 879 405 880.5C390 882 375 882 360 883.7C345 885.3 330 888.7 315 896.7C300 904.7 285 917.3 270 917.3C255 917.3 240 904.7 225 903.2C210 901.7 195 911.3 180 917.7C165 924 150 927 135 920.5C120 914 105 898 90 893.2C75 888.3 60 894.7 45 893.2C30 891.7 15 882.3 7.5 877.7L0 873Z" fill="#19228c"></path></svg>